<svg width="42" height="42" viewBox="0 0 42 42" fill="none" xmlns="http://www.w3.org/2000/svg">
<mask id="path-1-inside-1_62_342" fill="white">
<path d="M1.21693 23.8314C2.5127 23.9909 4.30913 24.5501 4.30913 25.178C4.30913 25.3537 4.41774 25.5115 4.58152 25.5743C4.7419 25.6363 4.93113 25.5921 5.04908 25.4615C5.07114 25.4386 7.33004 22.9862 11.7341 22.9862C16.3206 22.9862 18.947 25.1551 18.947 25.744C18.947 25.9485 19.0929 26.1234 19.2932 26.1607C19.4968 26.198 19.6929 26.0869 19.7675 25.8959C19.7837 25.8527 21.3832 21.7804 23.9442 21.7804C23.9527 21.7804 23.962 21.7804 23.9671 21.7804C25.2883 21.7956 27.6686 21.816 29.1205 23.5989C29.2843 23.8271 29.3903 23.9705 29.4209 24.0113C29.5566 24.2005 29.8172 24.2412 30.0047 24.1097C30.1922 23.9782 30.2431 23.7227 30.1201 23.5276C30.02 23.3714 29.9139 23.2272 29.8044 23.088C28.3975 21.1244 22.5508 12.777 22.5508 9.68569C22.5508 9.52107 22.4558 9.37087 22.3065 9.30129C22.158 9.23086 21.9823 9.25377 21.8559 9.35899C21.8067 9.39887 16.9885 13.3371 13.2437 10.2424C13.1996 10.1948 12.1626 9.07217 12.8483 8.17439C12.9281 8.07001 12.9535 7.93509 12.9204 7.8078C12.8873 7.68052 12.7965 7.57699 12.6752 7.52523C12.6684 7.52268 11.9861 7.22484 11.774 6.59774C11.6348 6.18788 11.7214 5.7025 12.032 5.15517C13.1826 3.12539 15.1725 1.39516 15.2387 1.33151C15.2489 1.31963 16.2451 0.193582 18.5329 1.42995C18.8307 1.59033 19.1846 1.77701 19.5817 1.98661C22.6467 3.59974 28.3508 6.60199 30.5495 9.71624C31.0145 10.3722 31.6085 11.1232 32.2992 11.9921C35.3838 15.8769 40.0323 21.7388 40.3012 28.6945C40.0891 29.1536 38.8459 31.5898 35.5713 33.5933C32.2212 35.6452 25.9901 37.6546 15.355 35.5722C15.2447 35.551 15.1242 35.5739 15.0283 35.6418C14.9324 35.7088 14.8696 35.8115 14.8535 35.9286C14.8484 35.9617 14.352 39.2949 12.5538 41.2899C12.3969 41.4638 12.4113 41.732 12.5852 41.8889C12.6667 41.9619 12.7685 41.9976 12.8695 41.9976C12.9858 41.9976 13.1003 41.95 13.1852 41.8567C14.7695 40.0968 15.4135 37.5095 15.6163 36.4844C18.6423 37.0529 21.3264 37.2956 23.7058 37.2956C37.585 37.2948 41.0836 29.0306 41.121 28.9338C41.143 28.8795 41.1532 28.8193 41.1515 28.7616C40.9173 21.4825 36.1305 15.4534 32.9662 11.4634C32.2823 10.6047 31.6967 9.86219 31.2478 9.22492C28.9321 5.94434 23.1084 2.88016 19.9805 1.23393C19.5859 1.02603 19.2346 0.841041 18.9385 0.68151C16.0559 -0.877314 14.6524 0.712058 14.6422 0.734121C14.5556 0.807947 12.5216 2.57467 11.298 4.73513C10.8609 5.50563 10.7523 6.22692 10.9772 6.87777C11.1783 7.46244 11.606 7.84854 11.9327 8.07001C11.4592 9.1477 12.1491 10.3136 12.6692 10.8576C16.1331 13.7223 20.2563 11.4821 21.7905 10.4536C22.3429 13.349 25.5921 18.4608 27.6771 21.5156C26.2956 20.9488 24.831 20.9335 23.9069 20.9259C21.5945 20.8962 20.0331 23.4079 19.356 24.7555C18.28 23.4868 15.3643 22.1283 11.7409 22.1283C8.11157 22.1283 5.84589 23.6396 4.91161 24.4262C4.1445 23.3833 1.8576 23.0456 1.3264 22.9802C1.09898 22.9505 0.883446 23.1169 0.853746 23.3511C0.818954 23.5895 0.984425 23.8025 1.21693 23.8314Z"/>
</mask>
<path d="M1.21693 23.8314L0.847504 26.8085L0.85035 26.8089L1.21693 23.8314ZM4.58152 25.5743L5.66242 22.7758L5.65554 22.7732L4.58152 25.5743ZM5.04908 25.4615L2.88812 23.3805L2.85452 23.4154L2.82207 23.4514L5.04908 25.4615ZM19.2932 26.1607L18.7433 29.1099L18.7522 29.1115L19.2932 26.1607ZM19.7675 25.8959L22.5614 26.9887L22.5703 26.966L22.5788 26.9433L19.7675 25.8959ZM23.9671 21.7804L24.0018 18.7806L23.9845 18.7804H23.9671V21.7804ZM29.1205 23.5989L31.558 21.85L31.5046 21.7755L31.4467 21.7044L29.1205 23.5989ZM29.4209 24.0113L31.8584 22.2624L31.8399 22.2366L31.8209 22.2113L29.4209 24.0113ZM30.1201 23.5276L32.6579 21.9277L32.6517 21.9178L32.6454 21.9081L30.1201 23.5276ZM29.8044 23.088L27.3658 24.8353L27.4049 24.8899L27.4465 24.9427L29.8044 23.088ZM22.3065 9.30129L21.0209 12.0119L21.0302 12.0163L21.0395 12.0206L22.3065 9.30129ZM21.8559 9.35899L23.7446 11.6898L23.7598 11.6775L23.7749 11.6649L21.8559 9.35899ZM13.2437 10.2424L11.0453 12.2837L11.18 12.4288L11.3326 12.5549L13.2437 10.2424ZM12.8483 8.17439L10.4647 6.35276L10.4641 6.35354L12.8483 8.17439ZM12.6752 7.52523L13.8523 4.7658L13.791 4.73965L13.7286 4.71624L12.6752 7.52523ZM11.774 6.59774L14.6158 5.63638L14.6147 5.63319L11.774 6.59774ZM12.032 5.15517L14.6412 6.63574L14.6418 6.63465L12.032 5.15517ZM15.2387 1.33151L17.318 3.49401L17.4223 3.39374L17.5165 3.28389L15.2387 1.33151ZM18.5329 1.42995L17.1065 4.06919L17.1106 4.07136L18.5329 1.42995ZM19.5817 1.98661L18.1814 4.63977L18.1845 4.64138L19.5817 1.98661ZM30.5495 9.71624L28.0987 11.4465L28.1021 11.4513L30.5495 9.71624ZM32.2992 11.9921L34.6487 10.1266L34.6476 10.1253L32.2992 11.9921ZM40.3012 28.6945L43.0245 29.953L43.3269 29.2987L43.299 28.5786L40.3012 28.6945ZM35.5713 33.5933L34.0056 31.0343L34.0044 31.035L35.5713 33.5933ZM15.355 35.5722L15.9314 32.6281L15.9215 32.6262L15.355 35.5722ZM15.0283 35.6418L16.7472 38.1005L16.7545 38.0954L16.7617 38.0903L15.0283 35.6418ZM14.8535 35.9286L17.8186 36.3848L17.8222 36.3613L17.8254 36.3378L14.8535 35.9286ZM12.5538 41.2899L14.781 43.2997L14.7823 43.2984L12.5538 41.2899ZM12.5852 41.8889L10.5753 44.1161L10.5835 44.1234L12.5852 41.8889ZM13.1852 41.8567L15.405 43.8747L15.4099 43.8693L15.4148 43.8638L13.1852 41.8567ZM15.6163 36.4844L16.1703 33.536L13.2501 32.9873L12.6734 35.9021L15.6163 36.4844ZM23.7058 37.2956L23.7058 40.2956L23.7059 40.2956L23.7058 37.2956ZM41.121 28.9338L38.3416 27.8047L38.3317 27.8291L38.3222 27.8536L41.121 28.9338ZM41.1515 28.7616L44.1502 28.6734L44.15 28.6651L41.1515 28.7616ZM32.9662 11.4634L35.3167 9.59931L35.3129 9.59445L32.9662 11.4634ZM31.2478 9.22492L33.7005 7.4973L33.6987 7.49484L31.2478 9.22492ZM19.9805 1.23393L18.5821 3.88806L18.5833 3.88868L19.9805 1.23393ZM18.9385 0.68151L17.5115 3.32038L17.5157 3.32268L18.9385 0.68151ZM14.6422 0.734121L16.589 3.01662L17.0901 2.58925L17.366 1.9913L14.6422 0.734121ZM11.298 4.73513L13.9074 6.21518L13.9083 6.2136L11.298 4.73513ZM10.9772 6.87777L13.8141 5.90195L13.8127 5.89809L10.9772 6.87777ZM11.9327 8.07001L14.6793 9.27678L15.6844 6.98902L13.6161 5.58684L11.9327 8.07001ZM12.6692 10.8576L10.5011 12.931L10.6222 13.0577L10.7573 13.1694L12.6692 10.8576ZM21.7905 10.4536L24.7374 9.8914L23.8874 5.43633L20.1201 7.96174L21.7905 10.4536ZM27.6771 21.5156L26.5382 24.2911L35.796 28.0897L30.155 19.8244L27.6771 21.5156ZM23.9069 20.9259L23.8683 23.9256L23.8821 23.9258L23.9069 20.9259ZM19.356 24.7555L17.0681 26.696L20.0008 30.1537L22.0366 26.1025L19.356 24.7555ZM4.91161 24.4262L2.49496 26.2038L4.39318 28.7845L6.84382 26.7211L4.91161 24.4262ZM1.3264 22.9802L0.937907 25.955L0.949023 25.9564L0.96015 25.9578L1.3264 22.9802ZM0.853746 23.3511L3.82231 23.7842L3.82637 23.7564L3.82991 23.7285L0.853746 23.3511ZM0.85035 26.8089C1.2929 26.8634 1.81733 26.9908 2.15924 27.1241C2.34526 27.1967 2.32099 27.2108 2.19422 27.1146C2.12641 27.0631 1.93903 26.9124 1.75132 26.6373C1.5534 26.3473 1.30913 25.8455 1.30913 25.178H7.30913C7.30913 23.554 6.20042 22.6228 5.82216 22.3357C5.31806 21.953 4.7637 21.6997 4.33865 21.534C3.4584 21.1908 2.43674 20.9589 1.58352 20.8538L0.85035 26.8089ZM1.30913 25.178C1.30913 26.5962 2.1837 27.8679 3.5075 28.3755L5.65554 22.7732C6.65178 23.1551 7.30913 24.1111 7.30913 25.178H1.30913ZM3.50061 28.3728C4.82339 28.8837 6.32739 28.5226 7.27608 27.4716L2.82207 23.4514C3.53487 22.6617 4.6604 22.3888 5.66242 22.7758L3.50061 28.3728ZM7.21004 27.5424C7.22754 27.5242 7.21701 27.5343 7.23446 27.5176C7.25696 27.4961 7.30839 27.4485 7.38832 27.3828C7.54901 27.2508 7.81927 27.0504 8.19601 26.8428C8.93951 26.4332 10.1116 25.9862 11.7341 25.9862V19.9862C8.95258 19.9862 6.79316 20.7654 5.30067 21.5876C4.55942 21.996 3.98557 22.4131 3.57888 22.7473C3.37512 22.9147 3.21205 23.0624 3.08959 23.1794C2.96207 23.3013 2.87614 23.393 2.88812 23.3805L7.21004 27.5424ZM11.7341 25.9862C13.5529 25.9862 14.897 26.416 15.7173 26.8268C16.137 27.0369 16.3744 27.2193 16.4578 27.2944C16.5045 27.3364 16.4535 27.3001 16.3655 27.1741C16.3207 27.1098 16.2347 26.9776 16.1524 26.7824C16.0772 26.6043 15.947 26.2382 15.947 25.744H21.947C21.947 24.7198 21.4566 23.9849 21.2848 23.7389C21.0352 23.3815 20.7433 23.0792 20.4721 22.835C19.9197 22.3377 19.2139 21.8674 18.4037 21.4618C16.7642 20.6408 14.5019 19.9862 11.7341 19.9862V25.9862ZM15.947 25.744C15.947 27.3975 17.1268 28.8085 18.7433 29.1099L19.843 23.2115C21.059 23.4382 21.947 24.4996 21.947 25.744H15.947ZM18.7522 29.1115C20.3829 29.4105 21.9686 28.5043 22.5614 26.9887L16.9736 24.8032C17.4171 23.6694 18.6107 22.9856 19.8342 23.2099L18.7522 29.1115ZM22.5788 26.9433C22.5359 27.0583 22.8329 26.2885 23.3529 25.5513C23.6094 25.1877 23.8412 24.9464 24.0125 24.818C24.172 24.6985 24.1354 24.7804 23.9442 24.7804V18.7804C21.0669 18.7804 19.2399 20.973 18.4502 22.0926C17.5262 23.4023 17.0153 24.6902 16.9563 24.8486L22.5788 26.9433ZM23.9442 24.7804C23.9442 24.7804 23.9442 24.7804 23.9442 24.7804C23.9443 24.7804 23.9443 24.7804 23.9443 24.7804C23.9443 24.7804 23.9443 24.7804 23.9443 24.7804C23.9444 24.7804 23.9444 24.7804 23.9444 24.7804C23.9444 24.7804 23.9444 24.7804 23.9444 24.7804C23.9445 24.7804 23.9445 24.7804 23.9445 24.7804C23.9445 24.7804 23.9445 24.7804 23.9445 24.7804C23.9446 24.7804 23.9446 24.7804 23.9446 24.7804C23.9446 24.7804 23.9446 24.7804 23.9446 24.7804C23.9447 24.7804 23.9447 24.7804 23.9447 24.7804C23.9447 24.7804 23.9447 24.7804 23.9447 24.7804C23.9448 24.7804 23.9448 24.7804 23.9448 24.7804C23.9448 24.7804 23.9448 24.7804 23.9448 24.7804C23.9449 24.7804 23.9449 24.7804 23.9449 24.7804C23.9449 24.7804 23.9449 24.7804 23.9449 24.7804C23.945 24.7804 23.945 24.7804 23.945 24.7804C23.945 24.7804 23.945 24.7804 23.945 24.7804C23.9451 24.7804 23.9451 24.7804 23.9451 24.7804C23.9451 24.7804 23.9451 24.7804 23.9451 24.7804C23.9452 24.7804 23.9452 24.7804 23.9452 24.7804C23.9452 24.7804 23.9452 24.7804 23.9452 24.7804C23.9453 24.7804 23.9453 24.7804 23.9453 24.7804C23.9453 24.7804 23.9453 24.7804 23.9453 24.7804C23.9454 24.7804 23.9454 24.7804 23.9454 24.7804C23.9454 24.7804 23.9454 24.7804 23.9454 24.7804C23.9455 24.7804 23.9455 24.7804 23.9455 24.7804C23.9455 24.7804 23.9455 24.7804 23.9455 24.7804C23.9456 24.7804 23.9456 24.7804 23.9456 24.7804C23.9456 24.7804 23.9456 24.7804 23.9456 24.7804C23.9457 24.7804 23.9457 24.7804 23.9457 24.7804C23.9457 24.7804 23.9457 24.7804 23.9457 24.7804C23.9458 24.7804 23.9458 24.7804 23.9458 24.7804C23.9458 24.7804 23.9458 24.7804 23.9458 24.7804C23.9459 24.7804 23.9459 24.7804 23.9459 24.7804C23.9459 24.7804 23.9459 24.7804 23.946 24.7804C23.946 24.7804 23.946 24.7804 23.946 24.7804C23.946 24.7804 23.946 24.7804 23.9461 24.7804C23.9461 24.7804 23.9461 24.7804 23.9461 24.7804C23.9461 24.7804 23.9461 24.7804 23.9462 24.7804C23.9462 24.7804 23.9462 24.7804 23.9462 24.7804C23.9462 24.7804 23.9462 24.7804 23.9463 24.7804C23.9463 24.7804 23.9463 24.7804 23.9463 24.7804C23.9463 24.7804 23.9463 24.7804 23.9464 24.7804C23.9464 24.7804 23.9464 24.7804 23.9464 24.7804C23.9464 24.7804 23.9464 24.7804 23.9465 24.7804C23.9465 24.7804 23.9465 24.7804 23.9465 24.7804C23.9465 24.7804 23.9465 24.7804 23.9466 24.7804C23.9466 24.7804 23.9466 24.7804 23.9466 24.7804C23.9466 24.7804 23.9466 24.7804 23.9467 24.7804C23.9467 24.7804 23.9467 24.7804 23.9467 24.7804C23.9467 24.7804 23.9467 24.7804 23.9468 24.7804C23.9468 24.7804 23.9468 24.7804 23.9468 24.7804C23.9468 24.7804 23.9468 24.7804 23.9469 24.7804C23.9469 24.7804 23.9469 24.7804 23.9469 24.7804C23.9469 24.7804 23.9469 24.7804 23.947 24.7804C23.947 24.7804 23.947 24.7804 23.947 24.7804C23.947 24.7804 23.947 24.7804 23.9471 24.7804C23.9471 24.7804 23.9471 24.7804 23.9471 24.7804C23.9471 24.7804 23.9471 24.7804 23.9472 24.7804C23.9472 24.7804 23.9472 24.7804 23.9472 24.7804C23.9472 24.7804 23.9472 24.7804 23.9473 24.7804C23.9473 24.7804 23.9473 24.7804 23.9473 24.7804C23.9473 24.7804 23.9473 24.7804 23.9474 24.7804C23.9474 24.7804 23.9474 24.7804 23.9474 24.7804C23.9474 24.7804 23.9474 24.7804 23.9475 24.7804C23.9475 24.7804 23.9475 24.7804 23.9475 24.7804C23.9475 24.7804 23.9475 24.7804 23.9476 24.7804C23.9476 24.7804 23.9476 24.7804 23.9476 24.7804C23.9476 24.7804 23.9476 24.7804 23.9477 24.7804C23.9477 24.7804 23.9477 24.7804 23.9477 24.7804C23.9477 24.7804 23.9477 24.7804 23.9478 24.7804C23.9478 24.7804 23.9478 24.7804 23.9478 24.7804C23.9478 24.7804 23.9478 24.7804 23.9479 24.7804C23.9479 24.7804 23.9479 24.7804 23.9479 24.7804C23.9479 24.7804 23.948 24.7804 23.948 24.7804C23.948 24.7804 23.948 24.7804 23.948 24.7804C23.948 24.7804 23.9481 24.7804 23.9481 24.7804C23.9481 24.7804 23.9481 24.7804 23.9481 24.7804C23.9481 24.7804 23.9482 24.7804 23.9482 24.7804C23.9482 24.7804 23.9482 24.7804 23.9482 24.7804C23.9482 24.7804 23.9483 24.7804 23.9483 24.7804C23.9483 24.7804 23.9483 24.7804 23.9483 24.7804C23.9483 24.7804 23.9484 24.7804 23.9484 24.7804C23.9484 24.7804 23.9484 24.7804 23.9484 24.7804C23.9484 24.7804 23.9485 24.7804 23.9485 24.7804C23.9485 24.7804 23.9485 24.7804 23.9485 24.7804C23.9485 24.7804 23.9486 24.7804 23.9486 24.7804C23.9486 24.7804 23.9486 24.7804 23.9486 24.7804C23.9486 24.7804 23.9487 24.7804 23.9487 24.7804C23.9487 24.7804 23.9487 24.7804 23.9487 24.7804C23.9487 24.7804 23.9488 24.7804 23.9488 24.7804C23.9488 24.7804 23.9488 24.7804 23.9488 24.7804C23.9488 24.7804 23.9489 24.7804 23.9489 24.7804C23.9489 24.7804 23.9489 24.7804 23.9489 24.7804C23.9489 24.7804 23.949 24.7804 23.949 24.7804C23.949 24.7804 23.949 24.7804 23.949 24.7804C23.949 24.7804 23.9491 24.7804 23.9491 24.7804C23.9491 24.7804 23.9491 24.7804 23.9491 24.7804C23.9491 24.7804 23.9492 24.7804 23.9492 24.7804C23.9492 24.7804 23.9492 24.7804 23.9492 24.7804C23.9492 24.7804 23.9493 24.7804 23.9493 24.7804C23.9493 24.7804 23.9493 24.7804 23.9493 24.7804C23.9493 24.7804 23.9494 24.7804 23.9494 24.7804C23.9494 24.7804 23.9494 24.7804 23.9494 24.7804C23.9494 24.7804 23.9495 24.7804 23.9495 24.7804C23.9495 24.7804 23.9495 24.7804 23.9495 24.7804C23.9496 24.7804 23.9496 24.7804 23.9496 24.7804C23.9496 24.7804 23.9496 24.7804 23.9496 24.7804C23.9497 24.7804 23.9497 24.7804 23.9497 24.7804C23.9497 24.7804 23.9497 24.7804 23.9497 24.7804C23.9498 24.7804 23.9498 24.7804 23.9498 24.7804C23.9498 24.7804 23.9498 24.7804 23.9498 24.7804C23.9499 24.7804 23.9499 24.7804 23.9499 24.7804C23.9499 24.7804 23.9499 24.7804 23.9499 24.7804C23.95 24.7804 23.95 24.7804 23.95 24.7804C23.95 24.7804 23.95 24.7804 23.95 24.7804C23.9501 24.7804 23.9501 24.7804 23.9501 24.7804C23.9501 24.7804 23.9501 24.7804 23.9501 24.7804C23.9502 24.7804 23.9502 24.7804 23.9502 24.7804C23.9502 24.7804 23.9502 24.7804 23.9502 24.7804C23.9503 24.7804 23.9503 24.7804 23.9503 24.7804C23.9503 24.7804 23.9503 24.7804 23.9503 24.7804C23.9504 24.7804 23.9504 24.7804 23.9504 24.7804C23.9504 24.7804 23.9504 24.7804 23.9504 24.7804C23.9505 24.7804 23.9505 24.7804 23.9505 24.7804C23.9505 24.7804 23.9505 24.7804 23.9505 24.7804C23.9506 24.7804 23.9506 24.7804 23.9506 24.7804C23.9506 24.7804 23.9506 24.7804 23.9506 24.7804C23.9507 24.7804 23.9507 24.7804 23.9507 24.7804C23.9507 24.7804 23.9507 24.7804 23.9507 24.7804C23.9508 24.7804 23.9508 24.7804 23.9508 24.7804C23.9508 24.7804 23.9508 24.7804 23.9508 24.7804C23.9509 24.7804 23.9509 24.7804 23.9509 24.7804C23.9509 24.7804 23.9509 24.7804 23.9509 24.7804C23.951 24.7804 23.951 24.7804 23.951 24.7804C23.951 24.7804 23.951 24.7804 23.951 24.7804C23.9511 24.7804 23.9511 24.7804 23.9511 24.7804C23.9511 24.7804 23.9511 24.7804 23.9511 24.7804C23.9512 24.7804 23.9512 24.7804 23.9512 24.7804C23.9512 24.7804 23.9512 24.7804 23.9512 24.7804C23.9513 24.7804 23.9513 24.7804 23.9513 24.7804C23.9513 24.7804 23.9513 24.7804 23.9513 24.7804C23.9514 24.7804 23.9514 24.7804 23.9514 24.7804C23.9514 24.7804 23.9514 24.7804 23.9514 24.7804C23.9515 24.7804 23.9515 24.7804 23.9515 24.7804C23.9515 24.7804 23.9515 24.7804 23.9515 24.7804C23.9516 24.7804 23.9516 24.7804 23.9516 24.7804C23.9516 24.7804 23.9516 24.7804 23.9516 24.7804C23.9517 24.7804 23.9517 24.7804 23.9517 24.7804C23.9517 24.7804 23.9517 24.7804 23.9517 24.7804C23.9518 24.7804 23.9518 24.7804 23.9518 24.7804C23.9518 24.7804 23.9518 24.7804 23.9518 24.7804C23.9519 24.7804 23.9519 24.7804 23.9519 24.7804C23.9519 24.7804 23.9519 24.7804 23.9519 24.7804C23.952 24.7804 23.952 24.7804 23.952 24.7804C23.952 24.7804 23.952 24.7804 23.952 24.7804C23.9521 24.7804 23.9521 24.7804 23.9521 24.7804C23.9521 24.7804 23.9521 24.7804 23.9521 24.7804C23.9522 24.7804 23.9522 24.7804 23.9522 24.7804C23.9522 24.7804 23.9522 24.7804 23.9522 24.7804C23.9523 24.7804 23.9523 24.7804 23.9523 24.7804C23.9523 24.7804 23.9523 24.7804 23.9523 24.7804C23.9524 24.7804 23.9524 24.7804 23.9524 24.7804C23.9524 24.7804 23.9524 24.7804 23.9524 24.7804C23.9525 24.7804 23.9525 24.7804 23.9525 24.7804C23.9525 24.7804 23.9525 24.7804 23.9525 24.7804C23.9526 24.7804 23.9526 24.7804 23.9526 24.7804C23.9526 24.7804 23.9526 24.7804 23.9526 24.7804C23.9527 24.7804 23.9527 24.7804 23.9527 24.7804C23.9527 24.7804 23.9527 24.7804 23.9527 24.7804C23.9528 24.7804 23.9528 24.7804 23.9528 24.7804C23.9528 24.7804 23.9528 24.7804 23.9528 24.7804C23.9529 24.7804 23.9529 24.7804 23.9529 24.7804C23.9529 24.7804 23.9529 24.7804 23.9529 24.7804C23.953 24.7804 23.953 24.7804 23.953 24.7804C23.953 24.7804 23.953 24.7804 23.953 24.7804C23.9531 24.7804 23.9531 24.7804 23.9531 24.7804C23.9531 24.7804 23.9531 24.7804 23.9531 24.7804C23.9532 24.7804 23.9532 24.7804 23.9532 24.7804C23.9532 24.7804 23.9532 24.7804 23.9532 24.7804C23.9533 24.7804 23.9533 24.7804 23.9533 24.7804C23.9533 24.7804 23.9533 24.7804 23.9533 24.7804C23.9534 24.7804 23.9534 24.7804 23.9534 24.7804C23.9534 24.7804 23.9534 24.7804 23.9534 24.7804C23.9535 24.7804 23.9535 24.7804 23.9535 24.7804C23.9535 24.7804 23.9535 24.7804 23.9535 24.7804C23.9536 24.7804 23.9536 24.7804 23.9536 24.7804C23.9536 24.7804 23.9536 24.7804 23.9536 24.7804C23.9537 24.7804 23.9537 24.7804 23.9537 24.7804C23.9537 24.7804 23.9537 24.7804 23.9537 24.7804C23.9538 24.7804 23.9538 24.7804 23.9538 24.7804C23.9538 24.7804 23.9538 24.7804 23.9538 24.7804C23.9539 24.7804 23.9539 24.7804 23.9539 24.7804C23.9539 24.7804 23.9539 24.7804 23.9539 24.7804C23.954 24.7804 23.954 24.7804 23.954 24.7804C23.954 24.7804 23.954 24.7804 23.954 24.7804C23.954 24.7804 23.9541 24.7804 23.9541 24.7804C23.9541 24.7804 23.9541 24.7804 23.9541 24.7804C23.9541 24.7804 23.9542 24.7804 23.9542 24.7804C23.9542 24.7804 23.9542 24.7804 23.9542 24.7804C23.9542 24.7804 23.9543 24.7804 23.9543 24.7804C23.9543 24.7804 23.9543 24.7804 23.9543 24.7804C23.9543 24.7804 23.9544 24.7804 23.9544 24.7804C23.9544 24.7804 23.9544 24.7804 23.9544 24.7804C23.9544 24.7804 23.9545 24.7804 23.9545 24.7804C23.9545 24.7804 23.9545 24.7804 23.9545 24.7804C23.9545 24.7804 23.9546 24.7804 23.9546 24.7804C23.9546 24.7804 23.9546 24.7804 23.9546 24.7804C23.9546 24.7804 23.9547 24.7804 23.9547 24.7804C23.9547 24.7804 23.9547 24.7804 23.9547 24.7804C23.9547 24.7804 23.9548 24.7804 23.9548 24.7804C23.9548 24.7804 23.9548 24.7804 23.9548 24.7804C23.9548 24.7804 23.9548 24.7804 23.9549 24.7804C23.9549 24.7804 23.9549 24.7804 23.9549 24.7804C23.9549 24.7804 23.9549 24.7804 23.955 24.7804C23.955 24.7804 23.955 24.7804 23.955 24.7804C23.955 24.7804 23.955 24.7804 23.9551 24.7804C23.9551 24.7804 23.9551 24.7804 23.9551 24.7804C23.9551 24.7804 23.9551 24.7804 23.9552 24.7804C23.9552 24.7804 23.9552 24.7804 23.9552 24.7804C23.9552 24.7804 23.9552 24.7804 23.9553 24.7804C23.9553 24.7804 23.9553 24.7804 23.9553 24.7804C23.9553 24.7804 23.9553 24.7804 23.9553 24.7804C23.9554 24.7804 23.9554 24.7804 23.9554 24.7804C23.9554 24.7804 23.9554 24.7804 23.9554 24.7804C23.9555 24.7804 23.9555 24.7804 23.9555 24.7804C23.9555 24.7804 23.9555 24.7804 23.9555 24.7804C23.9556 24.7804 23.9556 24.7804 23.9556 24.7804C23.9556 24.7804 23.9556 24.7804 23.9556 24.7804C23.9557 24.7804 23.9557 24.7804 23.9557 24.7804C23.9557 24.7804 23.9557 24.7804 23.9557 24.7804C23.9558 24.7804 23.9558 24.7804 23.9558 24.7804C23.9558 24.7804 23.9558 24.7804 23.9558 24.7804C23.9558 24.7804 23.9559 24.7804 23.9559 24.7804C23.9559 24.7804 23.9559 24.7804 23.9559 24.7804C23.9559 24.7804 23.956 24.7804 23.956 24.7804C23.956 24.7804 23.956 24.7804 23.956 24.7804C23.956 24.7804 23.9561 24.7804 23.9561 24.7804C23.9561 24.7804 23.9561 24.7804 23.9561 24.7804C23.9561 24.7804 23.9562 24.7804 23.9562 24.7804C23.9562 24.7804 23.9562 24.7804 23.9562 24.7804C23.9562 24.7804 23.9562 24.7804 23.9563 24.7804C23.9563 24.7804 23.9563 24.7804 23.9563 24.7804C23.9563 24.7804 23.9563 24.7804 23.9564 24.7804C23.9564 24.7804 23.9564 24.7804 23.9564 24.7804C23.9564 24.7804 23.9564 24.7804 23.9565 24.7804C23.9565 24.7804 23.9565 24.7804 23.9565 24.7804C23.9565 24.7804 23.9565 24.7804 23.9565 24.7804C23.9566 24.7804 23.9566 24.7804 23.9566 24.7804C23.9566 24.7804 23.9566 24.7804 23.9566 24.7804C23.9567 24.7804 23.9567 24.7804 23.9567 24.7804C23.9567 24.7804 23.9567 24.7804 23.9567 24.7804C23.9568 24.7804 23.9568 24.7804 23.9568 24.7804C23.9568 24.7804 23.9568 24.7804 23.9568 24.7804C23.9568 24.7804 23.9569 24.7804 23.9569 24.7804C23.9569 24.7804 23.9569 24.7804 23.9569 24.7804C23.9569 24.7804 23.957 24.7804 23.957 24.7804C23.957 24.7804 23.957 24.7804 23.957 24.7804C23.957 24.7804 23.9571 24.7804 23.9571 24.7804C23.9571 24.7804 23.9571 24.7804 23.9571 24.7804C23.9571 24.7804 23.9571 24.7804 23.9572 24.7804C23.9572 24.7804 23.9572 24.7804 23.9572 24.7804C23.9572 24.7804 23.9572 24.7804 23.9573 24.7804C23.9573 24.7804 23.9573 24.7804 23.9573 24.7804C23.9573 24.7804 23.9573 24.7804 23.9574 24.7804C23.9574 24.7804 23.9574 24.7804 23.9574 24.7804C23.9574 24.7804 23.9574 24.7804 23.9574 24.7804C23.9575 24.7804 23.9575 24.7804 23.9575 24.7804C23.9575 24.7804 23.9575 24.7804 23.9575 24.7804C23.9576 24.7804 23.9576 24.7804 23.9576 24.7804C23.9576 24.7804 23.9576 24.7804 23.9576 24.7804C23.9576 24.7804 23.9577 24.7804 23.9577 24.7804C23.9577 24.7804 23.9577 24.7804 23.9577 24.7804C23.9577 24.7804 23.9578 24.7804 23.9578 24.7804C23.9578 24.7804 23.9578 24.7804 23.9578 24.7804C23.9578 24.7804 23.9578 24.7804 23.9579 24.7804C23.9579 24.7804 23.9579 24.7804 23.9579 24.7804C23.9579 24.7804 23.9579 24.7804 23.958 24.7804C23.958 24.7804 23.958 24.7804 23.958 24.7804C23.958 24.7804 23.958 24.7804 23.9581 24.7804C23.9581 24.7804 23.9581 24.7804 23.9581 24.7804C23.9581 24.7804 23.9581 24.7804 23.9581 24.7804C23.9582 24.7804 23.9582 24.7804 23.9582 24.7804C23.9582 24.7804 23.9582 24.7804 23.9582 24.7804C23.9583 24.7804 23.9583 24.7804 23.9583 24.7804C23.9583 24.7804 23.9583 24.7804 23.9583 24.7804C23.9583 24.7804 23.9584 24.7804 23.9584 24.7804C23.9584 24.7804 23.9584 24.7804 23.9584 24.7804C23.9584 24.7804 23.9584 24.7804 23.9585 24.7804C23.9585 24.7804 23.9585 24.7804 23.9585 24.7804C23.9585 24.7804 23.9585 24.7804 23.9586 24.7804C23.9586 24.7804 23.9586 24.7804 23.9586 24.7804C23.9586 24.7804 23.9586 24.7804 23.9586 24.7804C23.9587 24.7804 23.9587 24.7804 23.9587 24.7804C23.9587 24.7804 23.9587 24.7804 23.9587 24.7804C23.9588 24.7804 23.9588 24.7804 23.9588 24.7804C23.9588 24.7804 23.9588 24.7804 23.9588 24.7804C23.9588 24.7804 23.9589 24.7804 23.9589 24.7804C23.9589 24.7804 23.9589 24.7804 23.9589 24.7804C23.9589 24.7804 23.959 24.7804 23.959 24.7804C23.959 24.7804 23.959 24.7804 23.959 24.7804C23.959 24.7804 23.959 24.7804 23.9591 24.7804C23.9591 24.7804 23.9591 24.7804 23.9591 24.7804C23.9591 24.7804 23.9591 24.7804 23.9591 24.7804C23.9592 24.7804 23.9592 24.7804 23.9592 24.7804C23.9592 24.7804 23.9592 24.7804 23.9592 24.7804C23.9593 24.7804 23.9593 24.7804 23.9593 24.7804C23.9593 24.7804 23.9593 24.7804 23.9593 24.7804C23.9593 24.7804 23.9594 24.7804 23.9594 24.7804C23.9594 24.7804 23.9594 24.7804 23.9594 24.7804C23.9594 24.7804 23.9594 24.7804 23.9595 24.7804C23.9595 24.7804 23.9595 24.7804 23.9595 24.7804C23.9595 24.7804 23.9595 24.7804 23.9596 24.7804C23.9596 24.7804 23.9596 24.7804 23.9596 24.7804C23.9596 24.7804 23.9596 24.7804 23.9596 24.7804C23.9597 24.7804 23.9597 24.7804 23.9597 24.7804C23.9597 24.7804 23.9597 24.7804 23.9597 24.7804C23.9597 24.7804 23.9598 24.7804 23.9598 24.7804C23.9598 24.7804 23.9598 24.7804 23.9598 24.7804C23.9598 24.7804 23.9598 24.7804 23.9599 24.7804C23.9599 24.7804 23.9599 24.7804 23.9599 24.7804C23.9599 24.7804 23.9599 24.7804 23.96 24.7804C23.96 24.7804 23.96 24.7804 23.96 24.7804C23.96 24.7804 23.96 24.7804 23.96 24.7804C23.9601 24.7804 23.9601 24.7804 23.9601 24.7804C23.9601 24.7804 23.9601 24.7804 23.9601 24.7804C23.9601 24.7804 23.9602 24.7804 23.9602 24.7804C23.9602 24.7804 23.9602 24.7804 23.9602 24.7804C23.9602 24.7804 23.9602 24.7804 23.9603 24.7804C23.9603 24.7804 23.9603 24.7804 23.9603 24.7804C23.9603 24.7804 23.9603 24.7804 23.9603 24.7804C23.9604 24.7804 23.9604 24.7804 23.9604 24.7804C23.9604 24.7804 23.9604 24.7804 23.9604 24.7804C23.9604 24.7804 23.9605 24.7804 23.9605 24.7804C23.9605 24.7804 23.9605 24.7804 23.9605 24.7804C23.9605 24.7804 23.9605 24.7804 23.9606 24.7804C23.9606 24.7804 23.9606 24.7804 23.9606 24.7804C23.9606 24.7804 23.9606 24.7804 23.9607 24.7804C23.9607 24.7804 23.9607 24.7804 23.9607 24.7804C23.9607 24.7804 23.9607 24.7804 23.9607 24.7804C23.9608 24.7804 23.9608 24.7804 23.9608 24.7804C23.9608 24.7804 23.9608 24.7804 23.9608 24.7804C23.9608 24.7804 23.9609 24.7804 23.9609 24.7804C23.9609 24.7804 23.9609 24.7804 23.9609 24.7804C23.9609 24.7804 23.9609 24.7804 23.961 24.7804C23.961 24.7804 23.961 24.7804 23.961 24.7804C23.961 24.7804 23.961 24.7804 23.961 24.7804C23.9611 24.7804 23.9611 24.7804 23.9611 24.7804C23.9611 24.7804 23.9611 24.7804 23.9611 24.7804C23.9611 24.7804 23.9612 24.7804 23.9612 24.7804C23.9612 24.7804 23.9612 24.7804 23.9612 24.7804C23.9612 24.7804 23.9612 24.7804 23.9613 24.7804C23.9613 24.7804 23.9613 24.7804 23.9613 24.7804C23.9613 24.7804 23.9613 24.7804 23.9613 24.7804C23.9613 24.7804 23.9614 24.7804 23.9614 24.7804C23.9614 24.7804 23.9614 24.7804 23.9614 24.7804C23.9614 24.7804 23.9614 24.7804 23.9615 24.7804C23.9615 24.7804 23.9615 24.7804 23.9615 24.7804C23.9615 24.7804 23.9615 24.7804 23.9615 24.7804C23.9616 24.7804 23.9616 24.7804 23.9616 24.7804C23.9616 24.7804 23.9616 24.7804 23.9616 24.7804C23.9616 24.7804 23.9617 24.7804 23.9617 24.7804C23.9617 24.7804 23.9617 24.7804 23.9617 24.7804C23.9617 24.7804 23.9617 24.7804 23.9618 24.7804C23.9618 24.7804 23.9618 24.7804 23.9618 24.7804C23.9618 24.7804 23.9618 24.7804 23.9618 24.7804C23.9619 24.7804 23.9619 24.7804 23.9619 24.7804C23.9619 24.7804 23.9619 24.7804 23.9619 24.7804C23.9619 24.7804 23.9619 24.7804 23.962 24.7804C23.962 24.7804 23.962 24.7804 23.962 24.7804C23.962 24.7804 23.962 24.7804 23.962 24.7804C23.9621 24.7804 23.9621 24.7804 23.9621 24.7804C23.9621 24.7804 23.9621 24.7804 23.9621 24.7804C23.9621 24.7804 23.9622 24.7804 23.9622 24.7804C23.9622 24.7804 23.9622 24.7804 23.9622 24.7804C23.9622 24.7804 23.9622 24.7804 23.9623 24.7804C23.9623 24.7804 23.9623 24.7804 23.9623 24.7804C23.9623 24.7804 23.9623 24.7804 23.9623 24.7804C23.9623 24.7804 23.9624 24.7804 23.9624 24.7804C23.9624 24.7804 23.9624 24.7804 23.9624 24.7804C23.9624 24.7804 23.9624 24.7804 23.9625 24.7804C23.9625 24.7804 23.9625 24.7804 23.9625 24.7804C23.9625 24.7804 23.9625 24.7804 23.9625 24.7804C23.9625 24.7804 23.9626 24.7804 23.9626 24.7804C23.9626 24.7804 23.9626 24.7804 23.9626 24.7804C23.9626 24.7804 23.9626 24.7804 23.9627 24.7804C23.9627 24.7804 23.9627 24.7804 23.9627 24.7804C23.9627 24.7804 23.9627 24.7804 23.9627 24.7804C23.9628 24.7804 23.9628 24.7804 23.9628 24.7804C23.9628 24.7804 23.9628 24.7804 23.9628 24.7804C23.9628 24.7804 23.9628 24.7804 23.9629 24.7804C23.9629 24.7804 23.9629 24.7804 23.9629 24.7804C23.9629 24.7804 23.9629 24.7804 23.9629 24.7804C23.963 24.7804 23.963 24.7804 23.963 24.7804C23.963 24.7804 23.963 24.7804 23.963 24.7804C23.963 24.7804 23.963 24.7804 23.9631 24.7804C23.9631 24.7804 23.9631 24.7804 23.9631 24.7804C23.9631 24.7804 23.9631 24.7804 23.9631 24.7804C23.9631 24.7804 23.9632 24.7804 23.9632 24.7804C23.9632 24.7804 23.9632 24.7804 23.9632 24.7804C23.9632 24.7804 23.9632 24.7804 23.9633 24.7804C23.9633 24.7804 23.9633 24.7804 23.9633 24.7804C23.9633 24.7804 23.9633 24.7804 23.9633 24.7804C23.9633 24.7804 23.9634 24.7804 23.9634 24.7804C23.9634 24.7804 23.9634 24.7804 23.9634 24.7804C23.9634 24.7804 23.9634 24.7804 23.9634 24.7804C23.9635 24.7804 23.9635 24.7804 23.9635 24.7804C23.9635 24.7804 23.9635 24.7804 23.9635 24.7804C23.9635 24.7804 23.9636 24.7804 23.9636 24.7804C23.9636 24.7804 23.9636 24.7804 23.9636 24.7804C23.9636 24.7804 23.9636 24.7804 23.9636 24.7804C23.9637 24.7804 23.9637 24.7804 23.9637 24.7804C23.9637 24.7804 23.9637 24.7804 23.9637 24.7804C23.9637 24.7804 23.9637 24.7804 23.9638 24.7804C23.9638 24.7804 23.9638 24.7804 23.9638 24.7804C23.9638 24.7804 23.9638 24.7804 23.9638 24.7804C23.9638 24.7804 23.9639 24.7804 23.9639 24.7804C23.9639 24.7804 23.9639 24.7804 23.9639 24.7804C23.9639 24.7804 23.9639 24.7804 23.9639 24.7804C23.964 24.7804 23.964 24.7804 23.964 24.7804C23.964 24.7804 23.964 24.7804 23.964 24.7804C23.964 24.7804 23.964 24.7804 23.9641 24.7804C23.9641 24.7804 23.9641 24.7804 23.9641 24.7804C23.9641 24.7804 23.9641 24.7804 23.9641 24.7804C23.9641 24.7804 23.9642 24.7804 23.9642 24.7804C23.9642 24.7804 23.9642 24.7804 23.9642 24.7804C23.9642 24.7804 23.9642 24.7804 23.9642 24.7804C23.9643 24.7804 23.9643 24.7804 23.9643 24.7804C23.9643 24.7804 23.9643 24.7804 23.9643 24.7804C23.9643 24.7804 23.9643 24.7804 23.9644 24.7804C23.9644 24.7804 23.9644 24.7804 23.9644 24.7804C23.9644 24.7804 23.9644 24.7804 23.9644 24.7804C23.9644 24.7804 23.9645 24.7804 23.9645 24.7804C23.9645 24.7804 23.9645 24.7804 23.9645 24.7804C23.9645 24.7804 23.9645 24.7804 23.9645 24.7804C23.9646 24.7804 23.9646 24.7804 23.9646 24.7804C23.9646 24.7804 23.9646 24.7804 23.9646 24.7804C23.9646 24.7804 23.9646 24.7804 23.9647 24.7804C23.9647 24.7804 23.9647 24.7804 23.9647 24.7804C23.9647 24.7804 23.9647 24.7804 23.9647 24.7804C23.9647 24.7804 23.9648 24.7804 23.9648 24.7804C23.9648 24.7804 23.9648 24.7804 23.9648 24.7804C23.9648 24.7804 23.9648 24.7804 23.9648 24.7804C23.9648 24.7804 23.9649 24.7804 23.9649 24.7804C23.9649 24.7804 23.9649 24.7804 23.9649 24.7804C23.9649 24.7804 23.9649 24.7804 23.9649 24.7804C23.965 24.7804 23.965 24.7804 23.965 24.7804C23.965 24.7804 23.965 24.7804 23.965 24.7804C23.965 24.7804 23.965 24.7804 23.965 24.7804C23.9651 24.7804 23.9651 24.7804 23.9651 24.7804C23.9651 24.7804 23.9651 24.7804 23.9651 24.7804C23.9651 24.7804 23.9651 24.7804 23.9652 24.7804C23.9652 24.7804 23.9652 24.7804 23.9652 24.7804C23.9652 24.7804 23.9652 24.7804 23.9652 24.7804C23.9652 24.7804 23.9652 24.7804 23.9653 24.7804C23.9653 24.7804 23.9653 24.7804 23.9653 24.7804C23.9653 24.7804 23.9653 24.7804 23.9653 24.7804C23.9653 24.7804 23.9654 24.7804 23.9654 24.7804C23.9654 24.7804 23.9654 24.7804 23.9654 24.7804C23.9654 24.7804 23.9654 24.7804 23.9654 24.7804C23.9654 24.7804 23.9655 24.7804 23.9655 24.7804C23.9655 24.7804 23.9655 24.7804 23.9655 24.7804C23.9655 24.7804 23.9655 24.7804 23.9655 24.7804C23.9655 24.7804 23.9656 24.7804 23.9656 24.7804C23.9656 24.7804 23.9656 24.7804 23.9656 24.7804C23.9656 24.7804 23.9656 24.7804 23.9656 24.7804C23.9657 24.7804 23.9657 24.7804 23.9657 24.7804C23.9657 24.7804 23.9657 24.7804 23.9657 24.7804C23.9657 24.7804 23.9657 24.7804 23.9657 24.7804C23.9658 24.7804 23.9658 24.7804 23.9658 24.7804C23.9658 24.7804 23.9658 24.7804 23.9658 24.7804C23.9658 24.7804 23.9658 24.7804 23.9658 24.7804C23.9659 24.7804 23.9659 24.7804 23.9659 24.7804C23.9659 24.7804 23.9659 24.7804 23.9659 24.7804C23.9659 24.7804 23.9659 24.7804 23.9659 24.7804C23.966 24.7804 23.966 24.7804 23.966 24.7804C23.966 24.7804 23.966 24.7804 23.966 24.7804C23.966 24.7804 23.966 24.7804 23.966 24.7804C23.9661 24.7804 23.9661 24.7804 23.9661 24.7804C23.9661 24.7804 23.9661 24.7804 23.9661 24.7804C23.9661 24.7804 23.9661 24.7804 23.9661 24.7804C23.9662 24.7804 23.9662 24.7804 23.9662 24.7804C23.9662 24.7804 23.9662 24.7804 23.9662 24.7804C23.9662 24.7804 23.9662 24.7804 23.9662 24.7804C23.9662 24.7804 23.9663 24.7804 23.9663 24.7804C23.9663 24.7804 23.9663 24.7804 23.9663 24.7804C23.9663 24.7804 23.9663 24.7804 23.9663 24.7804C23.9663 24.7804 23.9664 24.7804 23.9664 24.7804C23.9664 24.7804 23.9664 24.7804 23.9664 24.7804C23.9664 24.7804 23.9664 24.7804 23.9664 24.7804C23.9664 24.7804 23.9665 24.7804 23.9665 24.7804C23.9665 24.7804 23.9665 24.7804 23.9665 24.7804C23.9665 24.7804 23.9665 24.7804 23.9665 24.7804C23.9665 24.7804 23.9665 24.7804 23.9666 24.7804C23.9666 24.7804 23.9666 24.7804 23.9666 24.7804C23.9666 24.7804 23.9666 24.7804 23.9666 24.7804C23.9666 24.7804 23.9666 24.7804 23.9667 24.7804C23.9667 24.7804 23.9667 24.7804 23.9667 24.7804C23.9667 24.7804 23.9667 24.7804 23.9667 24.7804C23.9667 24.7804 23.9667 24.7804 23.9667 24.7804C23.9668 24.7804 23.9668 24.7804 23.9668 24.7804C23.9668 24.7804 23.9668 24.7804 23.9668 24.7804C23.9668 24.7804 23.9668 24.7804 23.9668 24.7804C23.9668 24.7804 23.9669 24.7804 23.9669 24.7804C23.9669 24.7804 23.9669 24.7804 23.9669 24.7804C23.9669 24.7804 23.9669 24.7804 23.9669 24.7804C23.9669 24.7804 23.967 24.7804 23.967 24.7804C23.967 24.7804 23.967 24.7804 23.967 24.7804C23.967 24.7804 23.967 24.7804 23.967 24.7804C23.967 24.7804 23.967 24.7804 23.9671 24.7804C23.9671 24.7804 23.9671 24.7804 23.9671 24.7804C23.9671 24.7804 23.9671 24.7804 23.9671 24.7804V18.7804C23.9671 18.7804 23.9671 18.7804 23.9671 18.7804C23.9671 18.7804 23.9671 18.7804 23.9671 18.7804C23.967 18.7804 23.967 18.7804 23.967 18.7804C23.967 18.7804 23.967 18.7804 23.967 18.7804C23.967 18.7804 23.967 18.7804 23.967 18.7804C23.967 18.7804 23.9669 18.7804 23.9669 18.7804C23.9669 18.7804 23.9669 18.7804 23.9669 18.7804C23.9669 18.7804 23.9669 18.7804 23.9669 18.7804C23.9669 18.7804 23.9668 18.7804 23.9668 18.7804C23.9668 18.7804 23.9668 18.7804 23.9668 18.7804C23.9668 18.7804 23.9668 18.7804 23.9668 18.7804C23.9668 18.7804 23.9668 18.7804 23.9667 18.7804C23.9667 18.7804 23.9667 18.7804 23.9667 18.7804C23.9667 18.7804 23.9667 18.7804 23.9667 18.7804C23.9667 18.7804 23.9667 18.7804 23.9667 18.7804C23.9666 18.7804 23.9666 18.7804 23.9666 18.7804C23.9666 18.7804 23.9666 18.7804 23.9666 18.7804C23.9666 18.7804 23.9666 18.7804 23.9666 18.7804C23.9665 18.7804 23.9665 18.7804 23.9665 18.7804C23.9665 18.7804 23.9665 18.7804 23.9665 18.7804C23.9665 18.7804 23.9665 18.7804 23.9665 18.7804C23.9665 18.7804 23.9664 18.7804 23.9664 18.7804C23.9664 18.7804 23.9664 18.7804 23.9664 18.7804C23.9664 18.7804 23.9664 18.7804 23.9664 18.7804C23.9664 18.7804 23.9663 18.7804 23.9663 18.7804C23.9663 18.7804 23.9663 18.7804 23.9663 18.7804C23.9663 18.7804 23.9663 18.7804 23.9663 18.7804C23.9663 18.7804 23.9662 18.7804 23.9662 18.7804C23.9662 18.7804 23.9662 18.7804 23.9662 18.7804C23.9662 18.7804 23.9662 18.7804 23.9662 18.7804C23.9662 18.7804 23.9662 18.7804 23.9661 18.7804C23.9661 18.7804 23.9661 18.7804 23.9661 18.7804C23.9661 18.7804 23.9661 18.7804 23.9661 18.7804C23.9661 18.7804 23.9661 18.7804 23.966 18.7804C23.966 18.7804 23.966 18.7804 23.966 18.7804C23.966 18.7804 23.966 18.7804 23.966 18.7804C23.966 18.7804 23.966 18.7804 23.9659 18.7804C23.9659 18.7804 23.9659 18.7804 23.9659 18.7804C23.9659 18.7804 23.9659 18.7804 23.9659 18.7804C23.9659 18.7804 23.9659 18.7804 23.9658 18.7804C23.9658 18.7804 23.9658 18.7804 23.9658 18.7804C23.9658 18.7804 23.9658 18.7804 23.9658 18.7804C23.9658 18.7804 23.9658 18.7804 23.9657 18.7804C23.9657 18.7804 23.9657 18.7804 23.9657 18.7804C23.9657 18.7804 23.9657 18.7804 23.9657 18.7804C23.9657 18.7804 23.9657 18.7804 23.9656 18.7804C23.9656 18.7804 23.9656 18.7804 23.9656 18.7804C23.9656 18.7804 23.9656 18.7804 23.9656 18.7804C23.9656 18.7804 23.9655 18.7804 23.9655 18.7804C23.9655 18.7804 23.9655 18.7804 23.9655 18.7804C23.9655 18.7804 23.9655 18.7804 23.9655 18.7804C23.9655 18.7804 23.9654 18.7804 23.9654 18.7804C23.9654 18.7804 23.9654 18.7804 23.9654 18.7804C23.9654 18.7804 23.9654 18.7804 23.9654 18.7804C23.9654 18.7804 23.9653 18.7804 23.9653 18.7804C23.9653 18.7804 23.9653 18.7804 23.9653 18.7804C23.9653 18.7804 23.9653 18.7804 23.9653 18.7804C23.9652 18.7804 23.9652 18.7804 23.9652 18.7804C23.9652 18.7804 23.9652 18.7804 23.9652 18.7804C23.9652 18.7804 23.9652 18.7804 23.9652 18.7804C23.9651 18.7804 23.9651 18.7804 23.9651 18.7804C23.9651 18.7804 23.9651 18.7804 23.9651 18.7804C23.9651 18.7804 23.9651 18.7804 23.965 18.7804C23.965 18.7804 23.965 18.7804 23.965 18.7804C23.965 18.7804 23.965 18.7804 23.965 18.7804C23.965 18.7804 23.965 18.7804 23.9649 18.7804C23.9649 18.7804 23.9649 18.7804 23.9649 18.7804C23.9649 18.7804 23.9649 18.7804 23.9649 18.7804C23.9649 18.7804 23.9648 18.7804 23.9648 18.7804C23.9648 18.7804 23.9648 18.7804 23.9648 18.7804C23.9648 18.7804 23.9648 18.7804 23.9648 18.7804C23.9648 18.7804 23.9647 18.7804 23.9647 18.7804C23.9647 18.7804 23.9647 18.7804 23.9647 18.7804C23.9647 18.7804 23.9647 18.7804 23.9647 18.7804C23.9646 18.7804 23.9646 18.7804 23.9646 18.7804C23.9646 18.7804 23.9646 18.7804 23.9646 18.7804C23.9646 18.7804 23.9646 18.7804 23.9645 18.7804C23.9645 18.7804 23.9645 18.7804 23.9645 18.7804C23.9645 18.7804 23.9645 18.7804 23.9645 18.7804C23.9645 18.7804 23.9644 18.7804 23.9644 18.7804C23.9644 18.7804 23.9644 18.7804 23.9644 18.7804C23.9644 18.7804 23.9644 18.7804 23.9644 18.7804C23.9643 18.7804 23.9643 18.7804 23.9643 18.7804C23.9643 18.7804 23.9643 18.7804 23.9643 18.7804C23.9643 18.7804 23.9643 18.7804 23.9642 18.7804C23.9642 18.7804 23.9642 18.7804 23.9642 18.7804C23.9642 18.7804 23.9642 18.7804 23.9642 18.7804C23.9642 18.7804 23.9641 18.7804 23.9641 18.7804C23.9641 18.7804 23.9641 18.7804 23.9641 18.7804C23.9641 18.7804 23.9641 18.7804 23.9641 18.7804C23.964 18.7804 23.964 18.7804 23.964 18.7804C23.964 18.7804 23.964 18.7804 23.964 18.7804C23.964 18.7804 23.964 18.7804 23.9639 18.7804C23.9639 18.7804 23.9639 18.7804 23.9639 18.7804C23.9639 18.7804 23.9639 18.7804 23.9639 18.7804C23.9639 18.7804 23.9638 18.7804 23.9638 18.7804C23.9638 18.7804 23.9638 18.7804 23.9638 18.7804C23.9638 18.7804 23.9638 18.7804 23.9638 18.7804C23.9637 18.7804 23.9637 18.7804 23.9637 18.7804C23.9637 18.7804 23.9637 18.7804 23.9637 18.7804C23.9637 18.7804 23.9637 18.7804 23.9636 18.7804C23.9636 18.7804 23.9636 18.7804 23.9636 18.7804C23.9636 18.7804 23.9636 18.7804 23.9636 18.7804C23.9636 18.7804 23.9635 18.7804 23.9635 18.7804C23.9635 18.7804 23.9635 18.7804 23.9635 18.7804C23.9635 18.7804 23.9635 18.7804 23.9634 18.7804C23.9634 18.7804 23.9634 18.7804 23.9634 18.7804C23.9634 18.7804 23.9634 18.7804 23.9634 18.7804C23.9634 18.7804 23.9633 18.7804 23.9633 18.7804C23.9633 18.7804 23.9633 18.7804 23.9633 18.7804C23.9633 18.7804 23.9633 18.7804 23.9633 18.7804C23.9632 18.7804 23.9632 18.7804 23.9632 18.7804C23.9632 18.7804 23.9632 18.7804 23.9632 18.7804C23.9632 18.7804 23.9631 18.7804 23.9631 18.7804C23.9631 18.7804 23.9631 18.7804 23.9631 18.7804C23.9631 18.7804 23.9631 18.7804 23.9631 18.7804C23.963 18.7804 23.963 18.7804 23.963 18.7804C23.963 18.7804 23.963 18.7804 23.963 18.7804C23.963 18.7804 23.963 18.7804 23.9629 18.7804C23.9629 18.7804 23.9629 18.7804 23.9629 18.7804C23.9629 18.7804 23.9629 18.7804 23.9629 18.7804C23.9628 18.7804 23.9628 18.7804 23.9628 18.7804C23.9628 18.7804 23.9628 18.7804 23.9628 18.7804C23.9628 18.7804 23.9628 18.7804 23.9627 18.7804C23.9627 18.7804 23.9627 18.7804 23.9627 18.7804C23.9627 18.7804 23.9627 18.7804 23.9627 18.7804C23.9626 18.7804 23.9626 18.7804 23.9626 18.7804C23.9626 18.7804 23.9626 18.7804 23.9626 18.7804C23.9626 18.7804 23.9625 18.7804 23.9625 18.7804C23.9625 18.7804 23.9625 18.7804 23.9625 18.7804C23.9625 18.7804 23.9625 18.7804 23.9625 18.7804C23.9624 18.7804 23.9624 18.7804 23.9624 18.7804C23.9624 18.7804 23.9624 18.7804 23.9624 18.7804C23.9624 18.7804 23.9623 18.7804 23.9623 18.7804C23.9623 18.7804 23.9623 18.7804 23.9623 18.7804C23.9623 18.7804 23.9623 18.7804 23.9623 18.7804C23.9622 18.7804 23.9622 18.7804 23.9622 18.7804C23.9622 18.7804 23.9622 18.7804 23.9622 18.7804C23.9622 18.7804 23.9621 18.7804 23.9621 18.7804C23.9621 18.7804 23.9621 18.7804 23.9621 18.7804C23.9621 18.7804 23.9621 18.7804 23.962 18.7804C23.962 18.7804 23.962 18.7804 23.962 18.7804C23.962 18.7804 23.962 18.7804 23.962 18.7804C23.9619 18.7804 23.9619 18.7804 23.9619 18.7804C23.9619 18.7804 23.9619 18.7804 23.9619 18.7804C23.9619 18.7804 23.9619 18.7804 23.9618 18.7804C23.9618 18.7804 23.9618 18.7804 23.9618 18.7804C23.9618 18.7804 23.9618 18.7804 23.9618 18.7804C23.9617 18.7804 23.9617 18.7804 23.9617 18.7804C23.9617 18.7804 23.9617 18.7804 23.9617 18.7804C23.9617 18.7804 23.9616 18.7804 23.9616 18.7804C23.9616 18.7804 23.9616 18.7804 23.9616 18.7804C23.9616 18.7804 23.9616 18.7804 23.9615 18.7804C23.9615 18.7804 23.9615 18.7804 23.9615 18.7804C23.9615 18.7804 23.9615 18.7804 23.9615 18.7804C23.9614 18.7804 23.9614 18.7804 23.9614 18.7804C23.9614 18.7804 23.9614 18.7804 23.9614 18.7804C23.9614 18.7804 23.9613 18.7804 23.9613 18.7804C23.9613 18.7804 23.9613 18.7804 23.9613 18.7804C23.9613 18.7804 23.9613 18.7804 23.9613 18.7804C23.9612 18.7804 23.9612 18.7804 23.9612 18.7804C23.9612 18.7804 23.9612 18.7804 23.9612 18.7804C23.9612 18.7804 23.9611 18.7804 23.9611 18.7804C23.9611 18.7804 23.9611 18.7804 23.9611 18.7804C23.9611 18.7804 23.9611 18.7804 23.961 18.7804C23.961 18.7804 23.961 18.7804 23.961 18.7804C23.961 18.7804 23.961 18.7804 23.961 18.7804C23.9609 18.7804 23.9609 18.7804 23.9609 18.7804C23.9609 18.7804 23.9609 18.7804 23.9609 18.7804C23.9609 18.7804 23.9608 18.7804 23.9608 18.7804C23.9608 18.7804 23.9608 18.7804 23.9608 18.7804C23.9608 18.7804 23.9608 18.7804 23.9607 18.7804C23.9607 18.7804 23.9607 18.7804 23.9607 18.7804C23.9607 18.7804 23.9607 18.7804 23.9607 18.7804C23.9606 18.7804 23.9606 18.7804 23.9606 18.7804C23.9606 18.7804 23.9606 18.7804 23.9606 18.7804C23.9605 18.7804 23.9605 18.7804 23.9605 18.7804C23.9605 18.7804 23.9605 18.7804 23.9605 18.7804C23.9605 18.7804 23.9604 18.7804 23.9604 18.7804C23.9604 18.7804 23.9604 18.7804 23.9604 18.7804C23.9604 18.7804 23.9604 18.7804 23.9603 18.7804C23.9603 18.7804 23.9603 18.7804 23.9603 18.7804C23.9603 18.7804 23.9603 18.7804 23.9603 18.7804C23.9602 18.7804 23.9602 18.7804 23.9602 18.7804C23.9602 18.7804 23.9602 18.7804 23.9602 18.7804C23.9602 18.7804 23.9601 18.7804 23.9601 18.7804C23.9601 18.7804 23.9601 18.7804 23.9601 18.7804C23.9601 18.7804 23.9601 18.7804 23.96 18.7804C23.96 18.7804 23.96 18.7804 23.96 18.7804C23.96 18.7804 23.96 18.7804 23.96 18.7804C23.9599 18.7804 23.9599 18.7804 23.9599 18.7804C23.9599 18.7804 23.9599 18.7804 23.9599 18.7804C23.9598 18.7804 23.9598 18.7804 23.9598 18.7804C23.9598 18.7804 23.9598 18.7804 23.9598 18.7804C23.9598 18.7804 23.9597 18.7804 23.9597 18.7804C23.9597 18.7804 23.9597 18.7804 23.9597 18.7804C23.9597 18.7804 23.9597 18.7804 23.9596 18.7804C23.9596 18.7804 23.9596 18.7804 23.9596 18.7804C23.9596 18.7804 23.9596 18.7804 23.9596 18.7804C23.9595 18.7804 23.9595 18.7804 23.9595 18.7804C23.9595 18.7804 23.9595 18.7804 23.9595 18.7804C23.9594 18.7804 23.9594 18.7804 23.9594 18.7804C23.9594 18.7804 23.9594 18.7804 23.9594 18.7804C23.9594 18.7804 23.9593 18.7804 23.9593 18.7804C23.9593 18.7804 23.9593 18.7804 23.9593 18.7804C23.9593 18.7804 23.9593 18.7804 23.9592 18.7804C23.9592 18.7804 23.9592 18.7804 23.9592 18.7804C23.9592 18.7804 23.9592 18.7804 23.9591 18.7804C23.9591 18.7804 23.9591 18.7804 23.9591 18.7804C23.9591 18.7804 23.9591 18.7804 23.9591 18.7804C23.959 18.7804 23.959 18.7804 23.959 18.7804C23.959 18.7804 23.959 18.7804 23.959 18.7804C23.959 18.7804 23.9589 18.7804 23.9589 18.7804C23.9589 18.7804 23.9589 18.7804 23.9589 18.7804C23.9589 18.7804 23.9588 18.7804 23.9588 18.7804C23.9588 18.7804 23.9588 18.7804 23.9588 18.7804C23.9588 18.7804 23.9588 18.7804 23.9587 18.7804C23.9587 18.7804 23.9587 18.7804 23.9587 18.7804C23.9587 18.7804 23.9587 18.7804 23.9586 18.7804C23.9586 18.7804 23.9586 18.7804 23.9586 18.7804C23.9586 18.7804 23.9586 18.7804 23.9586 18.7804C23.9585 18.7804 23.9585 18.7804 23.9585 18.7804C23.9585 18.7804 23.9585 18.7804 23.9585 18.7804C23.9584 18.7804 23.9584 18.7804 23.9584 18.7804C23.9584 18.7804 23.9584 18.7804 23.9584 18.7804C23.9584 18.7804 23.9583 18.7804 23.9583 18.7804C23.9583 18.7804 23.9583 18.7804 23.9583 18.7804C23.9583 18.7804 23.9583 18.7804 23.9582 18.7804C23.9582 18.7804 23.9582 18.7804 23.9582 18.7804C23.9582 18.7804 23.9582 18.7804 23.9581 18.7804C23.9581 18.7804 23.9581 18.7804 23.9581 18.7804C23.9581 18.7804 23.9581 18.7804 23.9581 18.7804C23.958 18.7804 23.958 18.7804 23.958 18.7804C23.958 18.7804 23.958 18.7804 23.958 18.7804C23.9579 18.7804 23.9579 18.7804 23.9579 18.7804C23.9579 18.7804 23.9579 18.7804 23.9579 18.7804C23.9578 18.7804 23.9578 18.7804 23.9578 18.7804C23.9578 18.7804 23.9578 18.7804 23.9578 18.7804C23.9578 18.7804 23.9577 18.7804 23.9577 18.7804C23.9577 18.7804 23.9577 18.7804 23.9577 18.7804C23.9577 18.7804 23.9576 18.7804 23.9576 18.7804C23.9576 18.7804 23.9576 18.7804 23.9576 18.7804C23.9576 18.7804 23.9576 18.7804 23.9575 18.7804C23.9575 18.7804 23.9575 18.7804 23.9575 18.7804C23.9575 18.7804 23.9575 18.7804 23.9574 18.7804C23.9574 18.7804 23.9574 18.7804 23.9574 18.7804C23.9574 18.7804 23.9574 18.7804 23.9574 18.7804C23.9573 18.7804 23.9573 18.7804 23.9573 18.7804C23.9573 18.7804 23.9573 18.7804 23.9573 18.7804C23.9572 18.7804 23.9572 18.7804 23.9572 18.7804C23.9572 18.7804 23.9572 18.7804 23.9572 18.7804C23.9571 18.7804 23.9571 18.7804 23.9571 18.7804C23.9571 18.7804 23.9571 18.7804 23.9571 18.7804C23.9571 18.7804 23.957 18.7804 23.957 18.7804C23.957 18.7804 23.957 18.7804 23.957 18.7804C23.957 18.7804 23.9569 18.7804 23.9569 18.7804C23.9569 18.7804 23.9569 18.7804 23.9569 18.7804C23.9569 18.7804 23.9568 18.7804 23.9568 18.7804C23.9568 18.7804 23.9568 18.7804 23.9568 18.7804C23.9568 18.7804 23.9568 18.7804 23.9567 18.7804C23.9567 18.7804 23.9567 18.7804 23.9567 18.7804C23.9567 18.7804 23.9567 18.7804 23.9566 18.7804C23.9566 18.7804 23.9566 18.7804 23.9566 18.7804C23.9566 18.7804 23.9566 18.7804 23.9565 18.7804C23.9565 18.7804 23.9565 18.7804 23.9565 18.7804C23.9565 18.7804 23.9565 18.7804 23.9565 18.7804C23.9564 18.7804 23.9564 18.7804 23.9564 18.7804C23.9564 18.7804 23.9564 18.7804 23.9564 18.7804C23.9563 18.7804 23.9563 18.7804 23.9563 18.7804C23.9563 18.7804 23.9563 18.7804 23.9563 18.7804C23.9562 18.7804 23.9562 18.7804 23.9562 18.7804C23.9562 18.7804 23.9562 18.7804 23.9562 18.7804C23.9562 18.7804 23.9561 18.7804 23.9561 18.7804C23.9561 18.7804 23.9561 18.7804 23.9561 18.7804C23.9561 18.7804 23.956 18.7804 23.956 18.7804C23.956 18.7804 23.956 18.7804 23.956 18.7804C23.956 18.7804 23.9559 18.7804 23.9559 18.7804C23.9559 18.7804 23.9559 18.7804 23.9559 18.7804C23.9559 18.7804 23.9558 18.7804 23.9558 18.7804C23.9558 18.7804 23.9558 18.7804 23.9558 18.7804C23.9558 18.7804 23.9558 18.7804 23.9557 18.7804C23.9557 18.7804 23.9557 18.7804 23.9557 18.7804C23.9557 18.7804 23.9557 18.7804 23.9556 18.7804C23.9556 18.7804 23.9556 18.7804 23.9556 18.7804C23.9556 18.7804 23.9556 18.7804 23.9555 18.7804C23.9555 18.7804 23.9555 18.7804 23.9555 18.7804C23.9555 18.7804 23.9555 18.7804 23.9554 18.7804C23.9554 18.7804 23.9554 18.7804 23.9554 18.7804C23.9554 18.7804 23.9554 18.7804 23.9553 18.7804C23.9553 18.7804 23.9553 18.7804 23.9553 18.7804C23.9553 18.7804 23.9553 18.7804 23.9553 18.7804C23.9552 18.7804 23.9552 18.7804 23.9552 18.7804C23.9552 18.7804 23.9552 18.7804 23.9552 18.7804C23.9551 18.7804 23.9551 18.7804 23.9551 18.7804C23.9551 18.7804 23.9551 18.7804 23.9551 18.7804C23.955 18.7804 23.955 18.7804 23.955 18.7804C23.955 18.7804 23.955 18.7804 23.955 18.7804C23.9549 18.7804 23.9549 18.7804 23.9549 18.7804C23.9549 18.7804 23.9549 18.7804 23.9549 18.7804C23.9548 18.7804 23.9548 18.7804 23.9548 18.7804C23.9548 18.7804 23.9548 18.7804 23.9548 18.7804C23.9548 18.7804 23.9547 18.7804 23.9547 18.7804C23.9547 18.7804 23.9547 18.7804 23.9547 18.7804C23.9547 18.7804 23.9546 18.7804 23.9546 18.7804C23.9546 18.7804 23.9546 18.7804 23.9546 18.7804C23.9546 18.7804 23.9545 18.7804 23.9545 18.7804C23.9545 18.7804 23.9545 18.7804 23.9545 18.7804C23.9545 18.7804 23.9544 18.7804 23.9544 18.7804C23.9544 18.7804 23.9544 18.7804 23.9544 18.7804C23.9544 18.7804 23.9543 18.7804 23.9543 18.7804C23.9543 18.7804 23.9543 18.7804 23.9543 18.7804C23.9543 18.7804 23.9542 18.7804 23.9542 18.7804C23.9542 18.7804 23.9542 18.7804 23.9542 18.7804C23.9542 18.7804 23.9541 18.7804 23.9541 18.7804C23.9541 18.7804 23.9541 18.7804 23.9541 18.7804C23.9541 18.7804 23.954 18.7804 23.954 18.7804C23.954 18.7804 23.954 18.7804 23.954 18.7804C23.954 18.7804 23.954 18.7804 23.9539 18.7804C23.9539 18.7804 23.9539 18.7804 23.9539 18.7804C23.9539 18.7804 23.9539 18.7804 23.9538 18.7804C23.9538 18.7804 23.9538 18.7804 23.9538 18.7804C23.9538 18.7804 23.9538 18.7804 23.9537 18.7804C23.9537 18.7804 23.9537 18.7804 23.9537 18.7804C23.9537 18.7804 23.9537 18.7804 23.9536 18.7804C23.9536 18.7804 23.9536 18.7804 23.9536 18.7804C23.9536 18.7804 23.9536 18.7804 23.9535 18.7804C23.9535 18.7804 23.9535 18.7804 23.9535 18.7804C23.9535 18.7804 23.9535 18.7804 23.9534 18.7804C23.9534 18.7804 23.9534 18.7804 23.9534 18.7804C23.9534 18.7804 23.9534 18.7804 23.9533 18.7804C23.9533 18.7804 23.9533 18.7804 23.9533 18.7804C23.9533 18.7804 23.9533 18.7804 23.9532 18.7804C23.9532 18.7804 23.9532 18.7804 23.9532 18.7804C23.9532 18.7804 23.9532 18.7804 23.9531 18.7804C23.9531 18.7804 23.9531 18.7804 23.9531 18.7804C23.9531 18.7804 23.9531 18.7804 23.953 18.7804C23.953 18.7804 23.953 18.7804 23.953 18.7804C23.953 18.7804 23.953 18.7804 23.9529 18.7804C23.9529 18.7804 23.9529 18.7804 23.9529 18.7804C23.9529 18.7804 23.9529 18.7804 23.9528 18.7804C23.9528 18.7804 23.9528 18.7804 23.9528 18.7804C23.9528 18.7804 23.9528 18.7804 23.9527 18.7804C23.9527 18.7804 23.9527 18.7804 23.9527 18.7804C23.9527 18.7804 23.9527 18.7804 23.9526 18.7804C23.9526 18.7804 23.9526 18.7804 23.9526 18.7804C23.9526 18.7804 23.9526 18.7804 23.9525 18.7804C23.9525 18.7804 23.9525 18.7804 23.9525 18.7804C23.9525 18.7804 23.9525 18.7804 23.9524 18.7804C23.9524 18.7804 23.9524 18.7804 23.9524 18.7804C23.9524 18.7804 23.9524 18.7804 23.9523 18.7804C23.9523 18.7804 23.9523 18.7804 23.9523 18.7804C23.9523 18.7804 23.9523 18.7804 23.9522 18.7804C23.9522 18.7804 23.9522 18.7804 23.9522 18.7804C23.9522 18.7804 23.9522 18.7804 23.9521 18.7804C23.9521 18.7804 23.9521 18.7804 23.9521 18.7804C23.9521 18.7804 23.9521 18.7804 23.952 18.7804C23.952 18.7804 23.952 18.7804 23.952 18.7804C23.952 18.7804 23.952 18.7804 23.9519 18.7804C23.9519 18.7804 23.9519 18.7804 23.9519 18.7804C23.9519 18.7804 23.9519 18.7804 23.9518 18.7804C23.9518 18.7804 23.9518 18.7804 23.9518 18.7804C23.9518 18.7804 23.9518 18.7804 23.9517 18.7804C23.9517 18.7804 23.9517 18.7804 23.9517 18.7804C23.9517 18.7804 23.9517 18.7804 23.9516 18.7804C23.9516 18.7804 23.9516 18.7804 23.9516 18.7804C23.9516 18.7804 23.9516 18.7804 23.9515 18.7804C23.9515 18.7804 23.9515 18.7804 23.9515 18.7804C23.9515 18.7804 23.9515 18.7804 23.9514 18.7804C23.9514 18.7804 23.9514 18.7804 23.9514 18.7804C23.9514 18.7804 23.9514 18.7804 23.9513 18.7804C23.9513 18.7804 23.9513 18.7804 23.9513 18.7804C23.9513 18.7804 23.9513 18.7804 23.9512 18.7804C23.9512 18.7804 23.9512 18.7804 23.9512 18.7804C23.9512 18.7804 23.9512 18.7804 23.9511 18.7804C23.9511 18.7804 23.9511 18.7804 23.9511 18.7804C23.9511 18.7804 23.9511 18.7804 23.951 18.7804C23.951 18.7804 23.951 18.7804 23.951 18.7804C23.951 18.7804 23.951 18.7804 23.9509 18.7804C23.9509 18.7804 23.9509 18.7804 23.9509 18.7804C23.9509 18.7804 23.9509 18.7804 23.9508 18.7804C23.9508 18.7804 23.9508 18.7804 23.9508 18.7804C23.9508 18.7804 23.9508 18.7804 23.9507 18.7804C23.9507 18.7804 23.9507 18.7804 23.9507 18.7804C23.9507 18.7804 23.9507 18.7804 23.9506 18.7804C23.9506 18.7804 23.9506 18.7804 23.9506 18.7804C23.9506 18.7804 23.9506 18.7804 23.9505 18.7804C23.9505 18.7804 23.9505 18.7804 23.9505 18.7804C23.9505 18.7804 23.9505 18.7804 23.9504 18.7804C23.9504 18.7804 23.9504 18.7804 23.9504 18.7804C23.9504 18.7804 23.9504 18.7804 23.9503 18.7804C23.9503 18.7804 23.9503 18.7804 23.9503 18.7804C23.9503 18.7804 23.9503 18.7804 23.9502 18.7804C23.9502 18.7804 23.9502 18.7804 23.9502 18.7804C23.9502 18.7804 23.9502 18.7804 23.9501 18.7804C23.9501 18.7804 23.9501 18.7804 23.9501 18.7804C23.9501 18.7804 23.9501 18.7804 23.95 18.7804C23.95 18.7804 23.95 18.7804 23.95 18.7804C23.95 18.7804 23.95 18.7804 23.9499 18.7804C23.9499 18.7804 23.9499 18.7804 23.9499 18.7804C23.9499 18.7804 23.9499 18.7804 23.9498 18.7804C23.9498 18.7804 23.9498 18.7804 23.9498 18.7804C23.9498 18.7804 23.9498 18.7804 23.9497 18.7804C23.9497 18.7804 23.9497 18.7804 23.9497 18.7804C23.9497 18.7804 23.9497 18.7804 23.9496 18.7804C23.9496 18.7804 23.9496 18.7804 23.9496 18.7804C23.9496 18.7804 23.9496 18.7804 23.9495 18.7804C23.9495 18.7804 23.9495 18.7804 23.9495 18.7804C23.9495 18.7804 23.9494 18.7804 23.9494 18.7804C23.9494 18.7804 23.9494 18.7804 23.9494 18.7804C23.9494 18.7804 23.9493 18.7804 23.9493 18.7804C23.9493 18.7804 23.9493 18.7804 23.9493 18.7804C23.9493 18.7804 23.9492 18.7804 23.9492 18.7804C23.9492 18.7804 23.9492 18.7804 23.9492 18.7804C23.9492 18.7804 23.9491 18.7804 23.9491 18.7804C23.9491 18.7804 23.9491 18.7804 23.9491 18.7804C23.9491 18.7804 23.949 18.7804 23.949 18.7804C23.949 18.7804 23.949 18.7804 23.949 18.7804C23.949 18.7804 23.9489 18.7804 23.9489 18.7804C23.9489 18.7804 23.9489 18.7804 23.9489 18.7804C23.9489 18.7804 23.9488 18.7804 23.9488 18.7804C23.9488 18.7804 23.9488 18.7804 23.9488 18.7804C23.9488 18.7804 23.9487 18.7804 23.9487 18.7804C23.9487 18.7804 23.9487 18.7804 23.9487 18.7804C23.9487 18.7804 23.9486 18.7804 23.9486 18.7804C23.9486 18.7804 23.9486 18.7804 23.9486 18.7804C23.9486 18.7804 23.9485 18.7804 23.9485 18.7804C23.9485 18.7804 23.9485 18.7804 23.9485 18.7804C23.9485 18.7804 23.9484 18.7804 23.9484 18.7804C23.9484 18.7804 23.9484 18.7804 23.9484 18.7804C23.9484 18.7804 23.9483 18.7804 23.9483 18.7804C23.9483 18.7804 23.9483 18.7804 23.9483 18.7804C23.9483 18.7804 23.9482 18.7804 23.9482 18.7804C23.9482 18.7804 23.9482 18.7804 23.9482 18.7804C23.9482 18.7804 23.9481 18.7804 23.9481 18.7804C23.9481 18.7804 23.9481 18.7804 23.9481 18.7804C23.9481 18.7804 23.948 18.7804 23.948 18.7804C23.948 18.7804 23.948 18.7804 23.948 18.7804C23.948 18.7804 23.9479 18.7804 23.9479 18.7804C23.9479 18.7804 23.9479 18.7804 23.9479 18.7804C23.9478 18.7804 23.9478 18.7804 23.9478 18.7804C23.9478 18.7804 23.9478 18.7804 23.9478 18.7804C23.9477 18.7804 23.9477 18.7804 23.9477 18.7804C23.9477 18.7804 23.9477 18.7804 23.9477 18.7804C23.9476 18.7804 23.9476 18.7804 23.9476 18.7804C23.9476 18.7804 23.9476 18.7804 23.9476 18.7804C23.9475 18.7804 23.9475 18.7804 23.9475 18.7804C23.9475 18.7804 23.9475 18.7804 23.9475 18.7804C23.9474 18.7804 23.9474 18.7804 23.9474 18.7804C23.9474 18.7804 23.9474 18.7804 23.9474 18.7804C23.9473 18.7804 23.9473 18.7804 23.9473 18.7804C23.9473 18.7804 23.9473 18.7804 23.9473 18.7804C23.9472 18.7804 23.9472 18.7804 23.9472 18.7804C23.9472 18.7804 23.9472 18.7804 23.9472 18.7804C23.9471 18.7804 23.9471 18.7804 23.9471 18.7804C23.9471 18.7804 23.9471 18.7804 23.9471 18.7804C23.947 18.7804 23.947 18.7804 23.947 18.7804C23.947 18.7804 23.947 18.7804 23.947 18.7804C23.9469 18.7804 23.9469 18.7804 23.9469 18.7804C23.9469 18.7804 23.9469 18.7804 23.9469 18.7804C23.9468 18.7804 23.9468 18.7804 23.9468 18.7804C23.9468 18.7804 23.9468 18.7804 23.9468 18.7804C23.9467 18.7804 23.9467 18.7804 23.9467 18.7804C23.9467 18.7804 23.9467 18.7804 23.9467 18.7804C23.9466 18.7804 23.9466 18.7804 23.9466 18.7804C23.9466 18.7804 23.9466 18.7804 23.9466 18.7804C23.9465 18.7804 23.9465 18.7804 23.9465 18.7804C23.9465 18.7804 23.9465 18.7804 23.9465 18.7804C23.9464 18.7804 23.9464 18.7804 23.9464 18.7804C23.9464 18.7804 23.9464 18.7804 23.9464 18.7804C23.9463 18.7804 23.9463 18.7804 23.9463 18.7804C23.9463 18.7804 23.9463 18.7804 23.9463 18.7804C23.9462 18.7804 23.9462 18.7804 23.9462 18.7804C23.9462 18.7804 23.9462 18.7804 23.9462 18.7804C23.9461 18.7804 23.9461 18.7804 23.9461 18.7804C23.9461 18.7804 23.9461 18.7804 23.9461 18.7804C23.946 18.7804 23.946 18.7804 23.946 18.7804C23.946 18.7804 23.946 18.7804 23.946 18.7804C23.9459 18.7804 23.9459 18.7804 23.9459 18.7804C23.9459 18.7804 23.9459 18.7804 23.9458 18.7804C23.9458 18.7804 23.9458 18.7804 23.9458 18.7804C23.9458 18.7804 23.9458 18.7804 23.9457 18.7804C23.9457 18.7804 23.9457 18.7804 23.9457 18.7804C23.9457 18.7804 23.9457 18.7804 23.9456 18.7804C23.9456 18.7804 23.9456 18.7804 23.9456 18.7804C23.9456 18.7804 23.9456 18.7804 23.9455 18.7804C23.9455 18.7804 23.9455 18.7804 23.9455 18.7804C23.9455 18.7804 23.9455 18.7804 23.9454 18.7804C23.9454 18.7804 23.9454 18.7804 23.9454 18.7804C23.9454 18.7804 23.9454 18.7804 23.9453 18.7804C23.9453 18.7804 23.9453 18.7804 23.9453 18.7804C23.9453 18.7804 23.9453 18.7804 23.9452 18.7804C23.9452 18.7804 23.9452 18.7804 23.9452 18.7804C23.9452 18.7804 23.9452 18.7804 23.9451 18.7804C23.9451 18.7804 23.9451 18.7804 23.9451 18.7804C23.9451 18.7804 23.9451 18.7804 23.945 18.7804C23.945 18.7804 23.945 18.7804 23.945 18.7804C23.945 18.7804 23.945 18.7804 23.9449 18.7804C23.9449 18.7804 23.9449 18.7804 23.9449 18.7804C23.9449 18.7804 23.9449 18.7804 23.9448 18.7804C23.9448 18.7804 23.9448 18.7804 23.9448 18.7804C23.9448 18.7804 23.9448 18.7804 23.9447 18.7804C23.9447 18.7804 23.9447 18.7804 23.9447 18.7804C23.9447 18.7804 23.9447 18.7804 23.9446 18.7804C23.9446 18.7804 23.9446 18.7804 23.9446 18.7804C23.9446 18.7804 23.9446 18.7804 23.9445 18.7804C23.9445 18.7804 23.9445 18.7804 23.9445 18.7804C23.9445 18.7804 23.9445 18.7804 23.9444 18.7804C23.9444 18.7804 23.9444 18.7804 23.9444 18.7804C23.9444 18.7804 23.9444 18.7804 23.9443 18.7804C23.9443 18.7804 23.9443 18.7804 23.9443 18.7804C23.9443 18.7804 23.9443 18.7804 23.9442 18.7804C23.9442 18.7804 23.9442 18.7804 23.9442 18.7804V24.7804ZM23.9324 24.7802C24.6199 24.7881 25.2197 24.8036 25.7834 24.9412C26.3079 25.0692 26.6032 25.2586 26.7943 25.4933L31.4467 21.7044C28.9821 18.6781 25.0848 18.7931 24.0018 18.7806L23.9324 24.7802ZM26.683 25.3477C26.8553 25.5879 26.9743 25.7491 27.0209 25.8113L31.8209 22.2113C31.8064 22.1919 31.7132 22.0663 31.558 21.85L26.683 25.3477ZM26.9834 25.7601C28.0942 27.3083 30.2169 27.6252 31.7273 26.5658L28.2821 21.6536C29.4175 20.8572 31.0191 21.0926 31.8584 22.2624L26.9834 25.7601ZM31.7273 26.5658C33.2348 25.5085 33.6272 23.4652 32.6579 21.9277L27.5823 25.1275C26.8591 23.9803 27.1496 22.4478 28.2821 21.6536L31.7273 26.5658ZM32.6454 21.9081C32.4789 21.6484 32.3122 21.4237 32.1624 21.2333L27.4465 24.9427C27.5156 25.0306 27.5611 25.0945 27.5948 25.1471L32.6454 21.9081ZM32.2431 21.3407C31.5566 20.3827 29.7967 17.8798 28.2199 15.2619C27.429 13.9489 26.7185 12.6631 26.2151 11.5613C25.9637 11.0109 25.7842 10.5502 25.6719 10.1855C25.5509 9.79263 25.5508 9.64767 25.5508 9.68569H19.5508C19.5508 11.1672 20.1803 12.7907 20.7576 14.0544C21.3945 15.4485 22.2335 16.9519 23.0802 18.3576C24.7785 21.1772 26.6453 23.8298 27.3658 24.8353L32.2431 21.3407ZM25.5508 9.68569C25.5508 8.36286 24.7872 7.14745 23.5734 6.58195L21.0395 12.0206C20.1244 11.5943 19.5508 10.6793 19.5508 9.68569H25.5508ZM23.5921 6.59071C22.3774 6.0146 20.9527 6.20767 19.9368 7.05306L23.7749 11.6649C23.0119 12.2999 21.9386 12.4471 21.0209 12.0119L23.5921 6.59071ZM19.9671 7.02819C19.9625 7.03191 19.9657 7.02937 19.9651 7.02986C19.9638 7.03087 19.9586 7.035 19.9497 7.04197C19.9317 7.05597 19.8983 7.08156 19.8509 7.11632C19.7555 7.18628 19.6065 7.29111 19.4146 7.41224C19.0214 7.66045 18.4973 7.94605 17.9219 8.1526C16.7372 8.57792 15.8695 8.52044 15.1548 7.92985L11.3326 12.5549C14.3627 15.059 17.7764 14.5798 19.9493 13.7997C21.0527 13.4036 21.9764 12.8905 22.6175 12.4858C22.9428 12.2805 23.2075 12.0953 23.3997 11.9543C23.496 11.8836 23.5749 11.8236 23.6347 11.777C23.6647 11.7537 23.6898 11.7338 23.7099 11.7178C23.7306 11.7012 23.7461 11.6886 23.7446 11.6898L19.9671 7.02819ZM15.4421 8.201C15.4863 8.24862 15.4847 8.24395 15.5092 8.29855C15.5279 8.34018 15.6125 8.53589 15.6146 8.8504C15.6169 9.22006 15.501 9.64371 15.2325 9.99523L10.4641 6.35354C9.1456 8.07995 9.66035 9.92027 10.0355 10.7559C10.4181 11.6081 10.957 12.1886 11.0453 12.2837L15.4421 8.201ZM15.2319 9.99602C15.8905 9.13422 16.0814 8.04333 15.8239 7.0529L10.017 8.56271C9.82563 7.82685 9.96559 7.00581 10.4647 6.35276L15.2319 9.99602ZM15.8239 7.0529C15.5511 6.0038 14.8071 5.17311 13.8523 4.7658L11.4981 10.2847C10.7859 9.98088 10.2235 9.35724 10.017 8.56271L15.8239 7.0529ZM13.7286 4.71624C13.7815 4.73611 13.8237 4.75378 13.8239 4.75389C13.8362 4.75898 13.846 4.76313 13.8516 4.76552C13.8634 4.77057 13.873 4.77473 13.8791 4.77745C13.8922 4.78319 13.9032 4.78814 13.9119 4.79209C13.9296 4.80019 13.9448 4.80741 13.9578 4.81371C13.9836 4.82632 14.0051 4.83757 14.0234 4.84779C14.0569 4.86653 14.0947 4.88993 14.1376 4.92312C14.186 4.96057 14.4597 5.17502 14.6158 5.63638L8.93221 7.55911C9.30043 8.64756 10.0213 9.32448 10.4656 9.66826C10.8999 10.0044 11.3358 10.227 11.6218 10.3342L13.7286 4.71624ZM14.6147 5.63319C14.8562 6.34445 14.5586 6.78121 14.6412 6.63574L9.42277 3.6746C8.88416 4.62379 8.41345 6.03131 8.93329 7.56229L14.6147 5.63319ZM14.6418 6.63465C15.5244 5.0777 17.1093 3.69471 17.318 3.49401L13.1594 -0.830985C13.2357 -0.904397 10.8409 1.17308 9.42215 3.67569L14.6418 6.63465ZM17.5165 3.28389C17.3624 3.46364 17.228 3.57808 17.1116 3.65648C16.9831 3.74302 16.8532 3.80074 16.7305 3.83012C16.6024 3.86081 16.5388 3.84682 16.5689 3.85175C16.6067 3.85796 16.7819 3.89375 17.1065 4.06919L19.9592 -1.20929C18.2925 -2.11002 16.7168 -2.33631 15.3329 -2.00484C14.0142 -1.68898 13.249 -0.956981 12.9609 -0.62086L17.5165 3.28389ZM17.1106 4.07136C17.4218 4.23898 17.7882 4.43225 18.1814 4.63977L20.982 -0.666543C20.5809 -0.878224 20.2396 -1.05832 19.9552 -1.21146L17.1106 4.07136ZM18.1845 4.64138C19.7271 5.45324 21.8084 6.55047 23.7667 7.81106C25.8017 9.12105 27.3539 10.3914 28.0987 11.4465L33.0002 7.98601C31.5464 5.92678 29.1472 4.13893 27.0143 2.76595C24.8046 1.34358 22.5014 0.133111 20.9789 -0.66816L18.1845 4.64138ZM28.1021 11.4513C28.6238 12.1872 29.2724 13.0054 29.9508 13.8589L34.6476 10.1253C33.9446 9.24092 33.4052 8.55716 32.9969 7.98122L28.1021 11.4513ZM29.9498 13.8576C33.1419 17.8779 37.0784 22.9895 37.3035 28.8104L43.299 28.5786C42.9861 20.488 37.6256 13.8759 34.6487 10.1266L29.9498 13.8576ZM37.578 27.4361C37.5321 27.5352 36.6292 29.4291 34.0056 31.0343L37.137 36.1524C41.0627 33.7505 42.6461 30.7719 43.0245 29.953L37.578 27.4361ZM34.0044 31.035C31.3954 32.633 25.9531 34.5904 15.9314 32.6281L14.7785 38.5163C26.0271 40.7188 33.0469 38.6574 37.1382 36.1516L34.0044 31.035ZM15.9215 32.6262C15.0479 32.4582 14.0895 32.6307 13.2948 33.1933L16.7617 38.0903C16.1588 38.5171 15.4414 38.6438 14.7884 38.5182L15.9215 32.6262ZM13.3093 33.183C12.525 33.7314 12.011 34.5787 11.8815 35.5194L17.8254 36.3378C17.7282 37.0443 17.3398 37.6862 16.7472 38.1005L13.3093 33.183ZM11.8883 35.4724C11.8874 35.4785 11.8874 35.479 11.8856 35.4898C11.8836 35.502 11.8798 35.5252 11.8738 35.5582C11.862 35.6245 11.842 35.7297 11.8127 35.8654C11.7534 36.1392 11.6588 36.5238 11.5201 36.9551C11.2226 37.8801 10.8093 38.7445 10.3254 39.2813L14.7823 43.2984C16.0965 41.8402 16.8305 40.0405 17.232 38.7919C17.4428 38.1364 17.5856 37.5568 17.677 37.134C17.723 36.9214 17.7567 36.7452 17.78 36.6151C17.7917 36.5499 17.8008 36.4961 17.8075 36.4549C17.8144 36.4122 17.8189 36.3828 17.8186 36.3848L11.8883 35.4724ZM10.3267 39.28C9.05376 40.6905 9.17787 42.855 10.5753 44.1161L14.5951 39.6618C15.6447 40.6089 15.7399 42.2371 14.781 43.2997L10.3267 39.28ZM10.5835 44.1234C11.2394 44.7111 12.063 44.9976 12.8695 44.9976V38.9976C13.474 38.9976 14.094 39.2128 14.587 39.6544L10.5835 44.1234ZM12.8695 44.9976C13.8144 44.9976 14.7405 44.6056 15.405 43.8747L10.9654 39.8387C11.4601 39.2945 12.1571 38.9976 12.8695 38.9976V44.9976ZM15.4148 43.8638C17.5796 41.459 18.3415 38.1672 18.5593 37.0667L12.6734 35.9021C12.5937 36.305 12.4234 37.0295 12.1204 37.8138C11.8099 38.6175 11.4151 39.339 10.9555 39.8496L15.4148 43.8638ZM15.0624 39.4328C18.2522 40.0321 21.1223 40.2956 23.7058 40.2956V34.2956C21.5305 34.2956 19.0325 34.0737 16.1703 33.536L15.0624 39.4328ZM23.7059 40.2956C39.1489 40.2947 43.5651 30.9328 43.9197 30.014L38.3222 27.8536C38.6021 27.1283 36.0211 34.2949 23.7056 34.2956L23.7059 40.2956ZM43.9004 30.0629C44.0866 29.6045 44.1636 29.1277 44.1502 28.6734L38.1528 28.8498C38.1428 28.5108 38.1994 28.1546 38.3416 27.8047L43.9004 30.0629ZM44.15 28.6651C43.879 20.2427 38.3775 13.4588 35.3167 9.59931L30.6157 13.3276C33.8835 17.4481 37.9556 22.7223 38.1531 28.858L44.15 28.6651ZM35.3129 9.59445C34.6193 8.72361 34.0899 8.0501 33.7005 7.4973L28.7952 10.9525C29.3036 11.6743 29.9452 12.4858 30.6195 13.3324L35.3129 9.59445ZM33.6987 7.49484C32.1918 5.36 29.7431 3.51738 27.5481 2.09758C25.2832 0.632533 22.9316 -0.603009 21.3778 -1.42083L18.5833 3.88868C20.1573 4.71709 22.2815 5.83676 24.2894 7.13551C26.3671 8.4795 27.9882 9.80926 28.797 10.955L33.6987 7.49484ZM21.3789 -1.42021C20.9798 -1.6305 20.6425 -1.80815 20.3612 -1.95966L17.5157 3.32268C17.8268 3.49023 18.1921 3.68256 18.5821 3.88806L21.3789 -1.42021ZM20.3655 -1.95736C18.3175 -3.06487 16.4384 -3.21593 14.8827 -2.76778C14.149 -2.55641 13.5762 -2.23619 13.1635 -1.94013C12.9576 -1.79238 12.787 -1.64742 12.6505 -1.51841C12.5828 -1.45438 12.5185 -1.38958 12.4587 -1.32493C12.43 -1.29394 12.3937 -1.25372 12.354 -1.20666C12.3358 -1.18503 12.3035 -1.14627 12.2655 -1.09684C12.2475 -1.0734 12.2139 -1.02909 12.1743 -0.971791C12.1666 -0.960601 12.0357 -0.777373 11.9183 -0.523054L17.366 1.9913C17.2948 2.14573 17.2257 2.25993 17.1973 2.30618C17.1616 2.36416 17.1306 2.40999 17.111 2.43843C17.0719 2.49501 17.039 2.53841 17.0218 2.56076C16.9855 2.608 16.9556 2.64385 16.9404 2.66187C16.9068 2.70172 16.8793 2.73195 16.8622 2.75047C16.8254 2.79018 16.7952 2.82009 16.7724 2.84159C16.7259 2.88554 16.6891 2.9149 16.6613 2.9349C16.6047 2.97545 16.5649 2.99163 16.5436 2.99775C16.5135 3.00642 16.5453 2.9883 16.6656 3.00394C16.792 3.02039 17.0702 3.08175 17.5115 3.32037L20.3655 -1.95736ZM12.6953 -1.54838C12.5613 -1.43404 10.184 0.614469 8.68756 3.25666L13.9083 6.2136C14.3588 5.41824 15.0009 4.63051 15.5906 3.99808C16.1691 3.37764 16.6129 2.99628 16.589 3.01662L12.6953 -1.54838ZM8.68846 3.25508C7.95798 4.543 7.55871 6.17019 8.14166 7.85745L13.8127 5.89809C13.8376 5.96997 13.8537 6.04624 13.8601 6.12162C13.8665 6.19632 13.8622 6.25622 13.8562 6.29613C13.8447 6.3728 13.8317 6.34878 13.9074 6.21518L8.68846 3.25508ZM8.14033 7.85359C8.63462 9.29057 9.63982 10.14 10.2493 10.5532L13.6161 5.58684C13.6171 5.58751 13.6206 5.58988 13.6268 5.59522C13.633 5.60052 13.6462 5.6125 13.6641 5.63286C13.6999 5.67375 13.7662 5.76285 13.8141 5.90196L8.14033 7.85359ZM9.1861 6.86325C8.54822 8.31504 8.75604 9.71108 9.1064 10.6821C9.44961 11.6334 10.0026 12.4097 10.5011 12.931L14.8374 8.78413C14.8414 8.78837 14.8191 8.76445 14.7907 8.72039C14.7782 8.70087 14.768 8.6829 14.7605 8.66797C14.7529 8.65294 14.7501 8.6452 14.7503 8.64577C14.7505 8.64629 14.7554 8.65982 14.7607 8.68633C14.7661 8.71306 14.7727 8.75642 14.7741 8.81448C14.7769 8.93908 14.7546 9.10541 14.6793 9.27678L9.1861 6.86325ZM10.7573 13.1694C13.3544 15.3173 16.2405 15.5168 18.5408 15.0575C20.7501 14.6165 22.545 13.5596 23.461 12.9455L20.1201 7.96174C19.5018 8.37619 18.468 8.95365 17.3662 9.17363C16.3554 9.37543 15.448 9.26261 14.5812 8.54577L10.7573 13.1694ZM18.8437 11.0159C19.2214 12.9954 20.4041 15.3769 21.547 17.4002C22.7475 19.5256 24.1333 21.6451 25.1992 23.2068L30.155 19.8244C29.1359 18.3313 27.8546 16.3674 26.7712 14.4494C25.6301 12.4292 24.9121 10.8072 24.7374 9.8914L18.8437 11.0159ZM28.8159 18.7402C26.834 17.927 24.8232 17.9333 23.9317 17.926L23.8821 23.9258C24.8387 23.9337 25.7572 23.9706 26.5382 24.2911L28.8159 18.7402ZM23.9454 17.9261C21.6215 17.8963 19.9087 19.1524 18.8582 20.2423C17.7935 21.3469 17.0742 22.6148 16.6754 23.4084L22.0366 26.1025C22.3149 25.5486 22.7149 24.8869 23.1782 24.4061C23.4008 24.1752 23.5819 24.0454 23.7067 23.9801C23.8156 23.9231 23.8589 23.9255 23.8683 23.9256L23.9454 17.9261ZM21.6439 22.815C20.6595 21.6544 19.1519 20.7608 17.5657 20.1604C15.9142 19.5353 13.9199 19.1283 11.7409 19.1283V25.1283C13.1853 25.1283 14.4605 25.4005 15.4418 25.7719C16.4882 26.1679 16.9765 26.5879 17.0681 26.696L21.6439 22.815ZM11.7409 19.1283C7.21838 19.1283 4.29264 21.0256 2.9794 22.1313L6.84382 26.7211C7.39913 26.2536 9.00476 25.1283 11.7409 25.1283V19.1283ZM7.32826 22.6486C6.31834 21.2756 4.69295 20.7063 3.90247 20.4662C2.93221 20.1714 2.03537 20.0448 1.69265 20.0027L0.96015 25.9578C1.14863 25.981 1.66085 26.0559 2.15861 26.2071C2.40586 26.2822 2.57619 26.3545 2.67192 26.4064C2.78849 26.4697 2.66088 26.4294 2.49496 26.2038L7.32826 22.6486ZM1.71489 20.0055C-0.189745 19.7568 -1.88756 21.1216 -2.12242 22.9737L3.82991 23.7285C3.65445 25.1121 2.38771 26.1443 0.937907 25.955L1.71489 20.0055ZM-2.11482 22.9179C-2.39267 24.8222 -1.05277 26.5727 0.847504 26.8085L1.58636 20.8542C3.02162 21.0323 4.03058 22.3568 3.82231 23.7842L-2.11482 22.9179Z" fill="#8D8D8D" mask="url(#path-1-inside-1_62_342)"/>
<path d="M26.0834 33.5448C26.9625 33.5448 27.8773 33.4176 28.753 33.0773C30.3942 32.4408 31.6008 31.168 32.3501 29.2952C32.4384 29.078 32.3323 28.831 32.1159 28.7436C31.8987 28.6562 31.6517 28.7614 31.5669 28.9804C30.9126 30.6249 29.8587 31.7365 28.4518 32.2856C25.3935 33.4753 21.575 31.6737 21.5393 31.6551C21.3272 31.5541 21.0735 31.6423 20.9725 31.8528C20.8706 32.0641 20.9589 32.317 21.1702 32.4188C21.2932 32.479 23.5386 33.5448 26.0834 33.5448Z" fill="#8D8D8D"/>
</svg>
