<svg width="42" height="41" viewBox="0 0 42 41" fill="none" xmlns="http://www.w3.org/2000/svg">
<path d="M6.70498 9.36259H31.6237C32.3911 9.36259 33.0132 8.74043 33.0132 7.97304C33.0132 7.20565 32.3911 6.5835 31.6237 6.5835H6.70498C5.93758 6.5835 5.31543 7.20565 5.31543 7.97304C5.31543 8.74043 5.93758 9.36259 6.70498 9.36259Z" fill="#8D8D8D"/>
<path d="M6.70498 15.2911H31.6237C32.3911 15.2911 33.0132 14.6689 33.0132 13.9015C33.0132 13.1341 32.3911 12.512 31.6237 12.512H6.70498C5.93758 12.512 5.31543 13.1341 5.31543 13.9015C5.31543 14.6689 5.93758 15.2911 6.70498 15.2911Z" fill="#8D8D8D"/>
<path d="M19.9252 18.4407H6.70498C5.93758 18.4407 5.31543 19.0628 5.31543 19.8302C5.31543 20.5976 5.93758 21.2198 6.70498 21.2198H19.9252C20.6926 21.2198 21.3147 20.5976 21.3147 19.8302C21.3147 19.0628 20.6926 18.4407 19.9252 18.4407Z" fill="#8D8D8D"/>
<path d="M41.9224 39.567L38.2895 32.374L39.6952 31.813C40.0644 31.6656 40.3742 31.2394 40.4005 30.8428L40.5202 29.0391C40.5403 28.737 40.6934 28.2656 40.8547 28.0096L41.8177 26.4801C42.0296 26.1438 42.0296 25.617 41.8178 25.2806L40.8547 23.7511C40.6936 23.4951 40.5404 23.0235 40.5203 22.7216L40.4007 20.9179C40.3781 20.5784 40.1474 20.2177 39.8501 20.0284V3.30717C39.8501 1.77472 38.6035 0.528076 37.0711 0.528076H2.77899C1.24665 0.528076 0 1.77472 0 3.30717V27.1122C0 28.6446 1.24665 29.8912 2.77899 29.8912H24.6373L24.7004 30.8429C24.7268 31.2395 25.0365 31.6656 25.4057 31.813L26.7255 32.3397L23.0751 39.567C22.9628 39.7894 22.9929 39.9235 23.038 39.9967C23.0666 40.0432 23.1365 40.1209 23.2838 40.1209C23.3574 40.1209 23.4423 40.1011 23.536 40.0619L26.5262 38.81C26.5997 38.7792 26.6872 38.7629 26.7791 38.7629C26.9988 38.7629 27.2226 38.8538 27.3494 38.9942L28.7858 40.5867C28.9055 40.7195 29.0537 40.7927 29.203 40.7927C29.3999 40.7927 29.5766 40.6653 29.6754 40.4523L32.4896 34.3818C32.4957 34.3817 32.5017 34.3817 32.5079 34.3816L35.3221 40.4523C35.4209 40.6654 35.5975 40.7927 35.7947 40.7927C35.9438 40.7927 36.0921 40.7195 36.2118 40.5866L37.6481 38.9943C37.7749 38.8538 37.9987 38.7629 38.2183 38.7629C38.3102 38.7629 38.3977 38.7792 38.4713 38.81L41.4615 40.0619C41.5552 40.1011 41.64 40.1209 41.7137 40.1209C41.861 40.1209 41.9309 40.0431 41.9594 39.9967C42.0046 39.9235 42.0347 39.7894 41.9224 39.567ZM2.77899 3.30717H37.0709L37.0711 18.5576L35.9848 17.2506C35.7865 17.0121 35.4233 16.8519 35.0813 16.8519C34.998 16.8519 34.9184 16.8614 34.8443 16.8802L33.0912 17.3264C32.8119 17.3974 32.2889 17.3974 32.0095 17.3264L30.2565 16.8802C30.1825 16.8614 30.1028 16.8519 30.0195 16.8519C29.6774 16.8519 29.3144 17.0121 29.1161 17.2506L27.9602 18.6414C27.767 18.8741 27.3661 19.1653 27.0852 19.2774L25.4058 19.9478C25.0366 20.0952 24.7268 20.5213 24.7005 20.9179L24.5808 22.7216C24.5608 23.0237 24.4077 23.4951 24.2464 23.7511L23.2834 25.2806C23.0715 25.6169 23.0715 26.1438 23.2834 26.4801L23.6813 27.1121H2.77899V3.30717ZM32.5503 31.7884C29.2874 31.7884 26.6423 29.1434 26.6423 25.8803C26.6423 22.6173 29.2874 19.9723 32.5503 19.9723C35.8134 19.9723 38.4586 22.6173 38.4586 25.8803C38.4587 29.1434 35.8134 31.7884 32.5503 31.7884Z" fill="#8D8D8D"/>
</svg>
