<svg width="25" height="25" viewBox="0 0 25 25" fill="none" xmlns="http://www.w3.org/2000/svg">
<path d="M0.691807 0.69179C-0.230602 1.6142 -0.230602 3.10969 0.691807 4.0321L9.1597 12.4999L0.691807 20.968C-0.230602 21.8903 -0.230602 23.3859 0.691807 24.3082C1.61419 25.2306 3.1097 25.2306 4.03209 24.3082L12.5 15.8402L20.968 24.3082C21.8903 25.2306 23.3859 25.2306 24.3082 24.3082C25.2306 23.3859 25.2306 21.8903 24.3082 20.968L15.8402 12.4999L24.3082 4.03212C25.2306 3.10974 25.2306 1.61422 24.3082 0.691837C23.3857 -0.230573 21.8903 -0.230573 20.968 0.691837L12.5 9.15969L4.03209 0.69179C3.1097 -0.230597 1.61419 -0.230597 0.691807 0.69179Z" fill="white"/>
</svg>
