<svg width="40" height="40" viewBox="0 0 40 40" fill="none" xmlns="http://www.w3.org/2000/svg">
<g clip-path="url(#clip0_114_10)">
<path d="M39.9999 20.1249C39.9532 16.3137 38.8182 12.5951 36.7287 9.40728C34.6392 6.21943 31.6824 3.695 28.2064 2.13133C24.7302 0.567655 20.8797 0.0298553 17.1082 0.58123C13.3368 1.13263 9.80137 2.75023 6.91844 5.2436C4.03549 7.73695 1.92507 11.0022 0.835694 14.6548C-0.253656 18.3074 -0.276606 22.1952 0.769594 25.8604C1.81579 29.5257 3.88754 32.8154 6.74087 35.3427C9.59417 37.8699 13.1102 39.5292 16.8749 40.1249V25.9499H11.875V20.1249H16.8749V15.6999C16.7592 14.6711 16.8707 13.6293 17.2017 12.6482C17.5327 11.6671 18.0749 10.7706 18.7902 10.022C19.5054 9.2733 20.3762 8.69078 21.3412 8.3155C22.3062 7.9402 23.3419 7.78128 24.3749 7.84998C25.8744 7.8705 27.3704 8.00423 28.8499 8.24998V13.25H26.3499C25.9189 13.1956 25.4809 13.2388 25.0689 13.3764C24.6567 13.514 24.2807 13.7424 23.9687 14.0448C23.6567 14.3472 23.4167 14.7158 23.2664 15.1234C23.1159 15.5312 23.0592 15.9674 23.0999 16.3999V20.1749H28.6499L27.7499 25.9999H23.1249V39.9999C27.8497 39.2527 32.1502 36.8367 35.2462 33.1902C38.3422 29.5437 40.0287 24.9084 39.9999 20.1249Z" fill="white"/>
</g>
<defs>
<clipPath id="clip0_114_10">
<rect width="40" height="40" fill="white"/>
</clipPath>
</defs>
</svg>
