<svg width="29" height="42" viewBox="0 0 29 42" fill="none" xmlns="http://www.w3.org/2000/svg">
<path d="M21.5244 9.05232C22.9004 9.68392 24.3607 10.3734 24.3837 10.3843C24.6042 10.4886 24.8382 10.538 25.0675 10.538C25.6666 10.538 26.2406 10.1994 26.5139 9.62161C26.8912 8.82271 26.5501 7.8687 25.7512 7.49143C25.6913 7.46333 25.1122 7.18969 24.3529 6.83545C23.7294 7.89241 22.7236 8.69605 21.5244 9.05232Z" fill="#8D8D8D"/>
<path d="M4.63635 10.5388C4.86562 10.5388 5.09828 10.4894 5.31909 10.3844C5.34178 10.3739 6.7689 9.6996 8.13167 9.07342C6.91452 8.73543 5.88872 7.94026 5.24797 6.8833C4.54017 7.21417 4.00847 7.46478 3.95226 7.49153C3.15302 7.86914 2.81165 8.82315 3.18858 9.62171C3.46154 10.1998 4.03692 10.5388 4.63635 10.5388Z" fill="#8D8D8D"/>
<path d="M20.2179 8.86749C22.6666 8.86749 24.6517 6.88243 24.6517 4.43374C24.6517 1.98505 22.6666 0 20.2179 0C17.7692 0 15.7842 1.98505 15.7842 4.43374C15.7842 6.88243 17.7692 8.86749 20.2179 8.86749Z" fill="#8D8D8D"/>
<path d="M9.52554 8.86749C11.9742 8.86749 13.9593 6.88243 13.9593 4.43374C13.9593 1.98505 11.9742 0 9.52554 0C7.07685 0 5.0918 1.98505 5.0918 4.43374C5.0918 6.88243 7.07685 8.86749 9.52554 8.86749Z" fill="#8D8D8D"/>
<path d="M26.6955 11.7797C26.6918 11.7757 26.688 11.7729 26.684 11.7692L26.2681 11.2717L25.8905 10.8938C25.6192 11.0364 25.3161 11.119 25.0001 11.119C24.7157 11.119 24.4393 11.057 24.1802 10.9348C24.1565 10.9232 22.3755 10.082 20.8942 9.40706L20.2166 10.0268L19.3222 9.18456C19.1369 9.1534 18.9547 9.11378 18.7769 9.0623C18.4074 9.22994 17.9672 9.45853 17.5124 9.72709C17.5459 9.53135 17.5445 9.33323 17.5052 9.14053C17.7078 9.02268 17.9069 8.91431 18.102 8.81102C17.0582 8.33418 16.2126 7.50243 15.7158 6.46986C15.4408 6.63715 15.1709 6.80784 14.9135 6.98225C14.5372 6.76652 14.1742 6.56096 13.889 6.39941C13.4078 7.44113 12.5737 8.28406 11.5391 8.77715C12.3857 9.21809 14.4465 10.3597 15.0185 10.7631C15.1434 10.8511 15.2789 10.9117 15.4167 10.9598V19.3054C15.4167 20.0227 15.5319 20.7051 15.7473 21.3282C15.7408 21.3946 15.7374 21.4617 15.7374 21.5291V23.4036H15.7493C15.7486 23.431 15.7418 23.4561 15.7418 23.4838L15.7429 39.9661C15.7429 41.0891 16.6532 42.0001 17.7772 42.0001C18.9002 42.0001 19.8115 41.0894 19.8115 39.9658L19.8102 23.4831C19.8102 23.4557 19.8031 23.4307 19.8024 23.4036H20.1082C20.1068 23.4303 20.1001 23.4557 20.1001 23.4828L20.099 39.9654C20.099 41.0884 21.0094 41.9994 22.133 41.9997C23.2564 41.9997 24.167 41.0894 24.167 39.9658L24.1691 23.4835C24.1691 23.4557 24.162 23.4307 24.1606 23.4036H24.21C24.3621 23.7019 24.6019 23.96 24.9189 24.1313C25.1803 24.2736 25.4621 24.341 25.7401 24.341C26.3511 24.341 26.942 24.0159 27.2539 23.4422C30.3706 17.709 28.6712 13.9356 26.6955 11.7797ZM24.9026 20.377L25.0022 15.2784C25.5986 16.4024 25.8634 18.004 24.9026 20.377Z" fill="#8D8D8D"/>
<path d="M10.8788 9.04028C10.7243 9.0877 10.5665 9.12766 10.406 9.16017L9.48587 10.0268L8.80787 9.40671C7.32589 10.082 5.54555 10.9232 5.52083 10.9344C5.26175 11.0567 4.98676 11.1186 4.70127 11.1186C4.38598 11.1186 4.08288 11.0363 3.81229 10.8934L3.15156 11.6124C3.13158 11.6317 3.10889 11.6466 3.09026 11.6669C1.11486 13.8225 -0.58488 17.5962 2.53384 23.3294C2.84575 23.9031 3.43671 24.2285 4.04732 24.2285C4.32502 24.2285 4.60746 24.1611 4.86823 24.0189C5.14289 23.8692 5.35455 23.6521 5.50694 23.4036H5.53641C5.53607 23.4201 5.53167 23.4354 5.53167 23.4527L5.53234 39.9349C5.53234 41.0583 6.44266 41.9689 7.566 41.9689C8.68968 41.9689 9.60067 41.0586 9.60067 39.9346L9.6 23.4523C9.6 23.4354 9.59559 23.4201 9.59525 23.4036H9.89497C9.89463 23.4201 9.88955 23.4354 9.88955 23.4523L9.8882 39.9346C9.8882 41.0583 10.7985 41.9689 11.9225 41.9689C13.0465 41.9689 13.9569 41.0586 13.9569 39.9349L13.9582 23.4527C13.9582 23.4361 13.9538 23.4201 13.9535 23.4036H13.9653V21.5297C13.9653 21.4617 13.9613 21.395 13.9548 21.3282C14.1709 20.7051 14.286 20.023 14.286 19.3054V10.7221C13.8935 10.7194 13.5159 10.5991 13.1939 10.3722C12.4129 9.82157 11.5239 9.32848 10.8788 9.04028ZM4.68603 15.3648V16.2019L4.77849 19.9892C3.99686 17.9 4.1838 16.4302 4.68603 15.3648Z" fill="#8D8D8D"/>
</svg>
