<svg width="42" height="42" viewBox="0 0 42 42" fill="none" xmlns="http://www.w3.org/2000/svg">
<path d="M27.7109 9.05232C29.0869 9.68392 30.5472 10.3734 30.5702 10.3843C30.7907 10.4886 31.0247 10.538 31.254 10.538C31.8531 10.538 32.4271 10.1994 32.7004 9.62161C33.0777 8.82271 32.7367 7.8687 31.9378 7.49143C31.8778 7.46333 31.2987 7.18969 30.5394 6.83545C29.916 7.89241 28.9101 8.69605 27.7109 9.05232Z" fill="#8D8D8D"/>
<path d="M10.8229 10.5388C11.0521 10.5388 11.2848 10.4894 11.5056 10.3844C11.5283 10.3739 12.9554 9.6996 14.3182 9.07342C13.101 8.73543 12.0752 7.94026 11.4345 6.8833C10.7267 7.21417 10.195 7.46478 10.1388 7.49153C9.33954 7.86914 8.99817 8.82315 9.3751 9.62171C9.64806 10.1998 10.2234 10.5388 10.8229 10.5388Z" fill="#8D8D8D"/>
<path d="M26.4044 8.86749C28.8531 8.86749 30.8382 6.88243 30.8382 4.43374C30.8382 1.98505 28.8531 0 26.4044 0C23.9558 0 21.9707 1.98505 21.9707 4.43374C21.9707 6.88243 23.9558 8.86749 26.4044 8.86749Z" fill="#8D8D8D"/>
<path d="M15.7121 8.86749C18.1608 8.86749 20.1458 6.88243 20.1458 4.43374C20.1458 1.98505 18.1608 0 15.7121 0C13.2634 0 11.2783 1.98505 11.2783 4.43374C11.2783 6.88243 13.2634 8.86749 15.7121 8.86749Z" fill="#8D8D8D"/>
<path d="M32.882 11.7797C32.8783 11.7757 32.8745 11.7729 32.8705 11.7692L32.4546 11.2717L32.077 10.8938C31.8057 11.0364 31.5026 11.119 31.1867 11.119C30.9022 11.119 30.6258 11.057 30.3668 10.9348C30.3431 10.9232 28.562 10.082 27.0807 9.40706L26.4031 10.0268L25.5087 9.18456C25.3234 9.1534 25.1412 9.11378 24.9634 9.0623C24.594 9.22994 24.1537 9.45853 23.6989 9.72709C23.7324 9.53135 23.7311 9.33323 23.6918 9.14053C23.8943 9.02268 24.0934 8.91431 24.2885 8.81102C23.2447 8.33418 22.3991 7.50243 21.9023 6.46986C21.6273 6.63715 21.3574 6.80784 21.1 6.98225C20.7237 6.76652 20.3607 6.56096 20.0756 6.39941C19.5943 7.44113 18.7602 8.28406 17.7256 8.77715C18.5722 9.21809 20.633 10.3597 21.205 10.7631C21.33 10.8511 21.4654 10.9117 21.6032 10.9598V19.3054C21.6032 20.0227 21.7184 20.7051 21.9338 21.3282C21.9273 21.3946 21.924 21.4617 21.924 21.5291V23.4036H21.9358C21.9351 23.431 21.9284 23.4561 21.9284 23.4838L21.9294 39.9661C21.9294 41.0891 22.8397 42.0001 23.9637 42.0001C25.0867 42.0001 25.998 41.0894 25.998 39.9658L25.9967 23.4831C25.9967 23.4557 25.9896 23.4307 25.9889 23.4036H26.2947C26.2934 23.4303 26.2866 23.4557 26.2866 23.4828L26.2856 39.9654C26.2856 41.0884 27.1959 41.9994 28.3196 41.9997C29.4429 41.9997 30.3536 41.0894 30.3536 39.9658L30.3556 23.4835C30.3556 23.4557 30.3485 23.4307 30.3471 23.4036H30.3966C30.5486 23.7019 30.7884 23.96 31.1054 24.1313C31.3668 24.2736 31.6486 24.341 31.9266 24.341C32.5376 24.341 33.1285 24.0159 33.4405 23.4422C36.5571 17.709 34.8577 13.9356 32.882 11.7797ZM31.0891 20.377L31.1887 15.2784C31.7851 16.4024 32.0499 18.004 31.0891 20.377Z" fill="#8D8D8D"/>
<path d="M17.0653 9.04028C16.9109 9.0877 16.7531 9.12766 16.5925 9.16017L15.6724 10.0268L14.9944 9.40671C13.5124 10.082 11.7321 10.9232 11.7074 10.9344C11.4483 11.0567 11.1733 11.1186 10.8878 11.1186C10.5725 11.1186 10.2694 11.0363 9.99881 10.8934L9.33808 11.6124C9.3181 11.6317 9.29541 11.6466 9.27679 11.6669C7.30138 13.8225 5.60164 17.5962 8.72037 23.3294C9.03227 23.9031 9.62324 24.2285 10.2338 24.2285C10.5115 24.2285 10.794 24.1611 11.0548 24.0189C11.3294 23.8692 11.5411 23.6521 11.6935 23.4036H11.7229C11.7226 23.4201 11.7182 23.4354 11.7182 23.4527L11.7189 39.9349C11.7189 41.0583 12.6292 41.9689 13.7525 41.9689C14.8762 41.9689 15.7872 41.0586 15.7872 39.9346L15.7865 23.4523C15.7865 23.4354 15.7821 23.4201 15.7818 23.4036H16.0815C16.0812 23.4201 16.0761 23.4354 16.0761 23.4523L16.0747 39.9346C16.0747 41.0583 16.985 41.9689 18.1091 41.9689C19.2331 41.9689 20.1434 41.0586 20.1434 39.9349L20.1447 23.4527C20.1447 23.4361 20.1403 23.4201 20.14 23.4036H20.1519V21.5297C20.1519 21.4617 20.1478 21.395 20.1414 21.3282C20.3574 20.7051 20.4726 20.023 20.4726 19.3054V10.7221C20.0801 10.7194 19.7025 10.5991 19.3804 10.3722C18.5994 9.82157 17.7104 9.32848 17.0653 9.04028ZM10.8726 15.3648V16.2019L10.965 19.9892C10.1834 17.9 10.3703 16.4302 10.8726 15.3648Z" fill="#8D8D8D"/>
</svg>
