<svg width="43" height="43" viewBox="0 0 43 43" fill="none" xmlns="http://www.w3.org/2000/svg">
<path d="M42.332 21.6118C42.332 25.7652 41.1004 29.8253 38.7929 33.2788C36.4854 36.7322 33.2056 39.4238 29.3684 41.0132C25.5311 42.6027 21.3087 43.0186 17.2351 42.2083C13.1615 41.398 9.4197 39.3979 6.4828 36.461C3.5459 33.5241 1.54584 29.7823 0.73555 25.7087C-0.0747397 21.6351 0.34113 17.4127 1.93057 13.5754C3.52001 9.73818 6.21163 6.45843 9.66506 4.15092C13.1185 1.84341 17.1786 0.611786 21.332 0.611786C24.0898 0.611786 26.8205 1.15497 29.3684 2.21032C31.9162 3.26566 34.2312 4.81251 36.1813 6.76254C38.1313 8.71257 39.6782 11.0276 40.7335 13.5754C41.7888 16.1233 42.332 18.854 42.332 21.6118ZM14.3029 4.96987C10.1591 6.71192 6.81049 9.93163 4.90723 14.0039C3.00396 18.0761 2.68182 22.7103 4.00337 27.0067C5.32491 31.3031 8.19583 34.9552 12.0587 37.2538C15.9216 39.5524 20.5009 40.3336 24.9073 39.4456C29.3138 38.5577 33.2332 36.064 35.9043 32.4487C38.5755 28.8334 39.808 24.3545 39.3624 19.8815C38.9169 15.4086 36.8251 11.2608 33.4932 8.24353C30.1613 5.22622 25.8271 3.55467 21.332 3.55343C18.9177 3.54946 16.5272 4.03116 14.3029 4.96987ZM21.3426 8.51364C21.9389 8.51259 22.5222 8.68849 23.0184 9.01907C23.5147 9.34965 23.9018 9.82005 24.1306 10.3707C24.3594 10.9214 24.4196 11.5275 24.3038 12.1125C24.1879 12.6974 23.9011 13.2348 23.4796 13.6567C23.0581 14.0785 22.521 14.3658 21.9361 14.4822C21.3513 14.5986 20.7451 14.5389 20.1942 14.3105C19.6433 14.0822 19.1726 13.6956 18.8416 13.1996C18.5106 12.7036 18.3342 12.1206 18.3347 11.5243C18.3347 10.7255 18.6518 9.95951 19.2163 9.39449C19.7808 8.82947 20.5466 8.51169 21.3453 8.51099L21.3426 8.51364ZM23.4434 32.9778V19.1768C23.4535 18.8948 23.4066 18.6137 23.3056 18.3502C23.2046 18.0867 23.0516 17.8463 22.8556 17.6433C22.6597 17.4402 22.4248 17.2788 22.1651 17.1685C21.9054 17.0582 21.6261 17.0013 21.344 17.0013C21.0618 17.0013 20.7825 17.0582 20.5228 17.1685C20.2631 17.2788 20.0283 17.4402 19.8323 17.6433C19.6364 17.8463 19.4834 18.0867 19.3824 18.3502C19.2814 18.6137 19.2345 18.8948 19.2445 19.1768V32.9778C19.2638 33.5217 19.4935 34.0369 19.8851 34.4148C20.2767 34.7928 20.7997 35.004 21.344 35.004C21.8882 35.004 22.4112 34.7928 22.8028 34.4148C23.1944 34.0369 23.4241 33.5217 23.4434 32.9778Z" fill="black"/>
</svg>
