<svg width="40" height="40" viewBox="0 0 40 40" fill="none" xmlns="http://www.w3.org/2000/svg">
<g clip-path="url(#clip0_114_6)">
<path fill-rule="evenodd" clip-rule="evenodd" d="M20 31C26.0751 31 31 26.0751 31 20C31 13.9249 26.0751 9 20 9C13.9249 9 9 13.9249 9 20C9 26.0751 13.9249 31 20 31ZM20 27.3333C24.05 27.3333 27.3333 24.05 27.3333 20C27.3333 15.9499 24.05 12.6667 20 12.6667C15.9499 12.6667 12.6667 15.9499 12.6667 20C12.6667 24.05 15.9499 27.3333 20 27.3333Z" fill="white"/>
<path d="M30.9998 7.16675C29.9873 7.16675 29.1665 7.98757 29.1665 9.00008C29.1665 10.0126 29.9873 10.8334 30.9998 10.8334C32.0124 10.8334 32.8332 10.0126 32.8332 9.00008C32.8332 7.98757 32.0124 7.16675 30.9998 7.16675Z" fill="white"/>
<path fill-rule="evenodd" clip-rule="evenodd" d="M1.03242 5.83936C-0.166504 8.19239 -0.166504 11.2727 -0.166504 17.4333V22.5666C-0.166504 28.7271 -0.166504 31.8075 1.03242 34.1604C2.08703 36.2302 3.76981 37.9131 5.83961 38.9676C8.19263 40.1666 11.2729 40.1666 17.4335 40.1666H22.5668C28.7274 40.1666 31.8077 40.1666 34.1606 38.9676C36.2305 37.9131 37.9133 36.2302 38.9678 34.1604C40.1668 31.8075 40.1668 28.7271 40.1668 22.5666V17.4333C40.1668 11.2727 40.1668 8.19239 38.9678 5.83936C37.9133 3.76957 36.2305 2.08679 34.1606 1.03218C31.8077 -0.166748 28.7274 -0.166748 22.5668 -0.166748H17.4335C11.2729 -0.166748 8.19263 -0.166748 5.83961 1.03218C3.76981 2.08679 2.08703 3.76957 1.03242 5.83936ZM22.5668 3.49992H17.4335C14.2927 3.49992 12.1576 3.50278 10.5073 3.6376C8.89977 3.76894 8.0777 4.007 7.50424 4.2992C6.12438 5.00228 5.00252 6.12413 4.29944 7.50399C4.00724 8.07746 3.76919 8.89953 3.63785 10.5071C3.50302 12.1574 3.50016 14.2925 3.50016 17.4333V22.5666C3.50016 25.7075 3.50302 27.8424 3.63785 29.4927C3.76919 31.1004 4.00724 31.9225 4.29944 32.4959C5.00252 33.8757 6.12438 34.9975 7.50424 35.7006C8.0777 35.9928 8.89977 36.231 10.5073 36.3622C12.1576 36.497 14.2927 36.4999 17.4335 36.4999H22.5668C25.7077 36.4999 27.8426 36.497 29.493 36.3622C31.1006 36.231 31.9227 35.9928 32.4962 35.7006C33.8759 34.9975 34.9977 33.8757 35.7008 32.4959C35.9931 31.9225 36.2312 31.1004 36.3625 29.4927C36.4972 27.8424 36.5002 25.7075 36.5002 22.5666V17.4333C36.5002 14.2925 36.4972 12.1574 36.3625 10.5071C36.2312 8.89953 35.9931 8.07746 35.7008 7.50399C34.9977 6.12413 33.8759 5.00228 32.4962 4.2992C31.9227 4.007 31.1006 3.76894 29.493 3.6376C27.8426 3.50278 25.7077 3.49992 22.5668 3.49992Z" fill="white"/>
</g>
<defs>
<clipPath id="clip0_114_6">
<rect width="40" height="40" fill="white"/>
</clipPath>
</defs>
</svg>
