<svg width="42" height="42" viewBox="0 0 42 42" fill="none" xmlns="http://www.w3.org/2000/svg">
<g clip-path="url(#clip0_125_99)">
<path d="M41.9885 18.1606C41.5449 14.777 37.4919 10.0768 37.4919 10.0768C36.4348 7.35738 33.7037 8.26172 33.7037 8.26172L31.8807 8.75353C30.0761 9.29634 30.161 11.6583 30.9438 12.1371C31.2871 12.3467 32.2932 12.4013 32.5907 12.1371C32.6794 12.0569 32.6117 11.6731 32.6117 11.6731C34.526 11.7775 34.6655 10.6685 34.6655 10.6685L35.3168 10.5386C35.9691 10.1818 36.114 11.6948 36.114 11.6948C35.6704 15.9826 37.5272 17.5524 37.5272 17.5524C37.2585 18.4038 36.3229 18.2394 36.3229 18.2394C33.3542 16.6971 31.1517 19.6116 31.1517 19.6116C29.4735 18.182 26.0105 20.7148 26.0105 20.7148C24.07 21.0984 23.9551 18.7634 23.9551 18.7634C23.9551 18.7634 23.8651 17.2759 23.8023 17.1394C23.711 16.9071 24.2149 17.0246 24.2149 17.0246C25.9217 13.9183 24.2149 14.3332 24.2149 14.3332C24.6284 8.97404 19.9308 10.0989 19.9308 10.0989C16.3173 11.0894 17.6411 14.6887 17.6411 14.6887C16.8477 14.495 17.2281 15.6779 17.2281 15.6779C17.433 17.4937 18.0821 17.082 18.0821 17.082C18.1663 17.718 18.5231 18.5937 18.5231 18.5937L18.578 20.0526C18.1702 22.4737 15.6144 20.4655 15.6144 20.4655C14.1152 18.3517 10.3564 19.5338 10.3564 19.5338C8.41468 16.6453 5.35622 18.2941 5.35622 18.2941C5.6811 17.5764 5.30136 14.0062 5.30136 14.0062C5.6811 13.5652 6.44378 11.0677 6.44378 11.0677C6.76995 11.5088 8.24131 11.5863 8.24131 11.5863C8.35361 12.2492 8.82656 12.5187 8.82656 12.5187C9.82626 12.9332 9.41181 9.66108 9.41181 9.66108C9.67347 8.62238 8.00323 8.37251 8.00323 8.37251C5.09007 7.57125 4.41546 9.41121 4.41546 9.41121L3.65534 11.0639C2.57035 12.2468 0.534096 16.2859 0.534096 16.2859C-0.637898 19.5008 0.484379 20.0807 0.484379 20.0807L2.59821 21.7237C6.1847 25.196 8.35211 24.6975 8.35211 24.6975C11.2366 24.6426 10.9991 26.51 10.9991 26.51C11.114 29.3692 13.1104 32.3351 13.1104 32.3351C13.2572 32.8335 13.3615 33.3607 13.4653 33.8827H27.1398C27.3931 33.3178 27.6567 32.7904 27.8916 32.463C29.0113 30.8815 30.5405 28.8302 31.1041 27.4705C32.2079 24.7967 32.7315 24.8593 32.7315 24.8593C36.6709 24.8593 38.8447 22.0029 38.8447 22.0029C39.4906 21.1757 40.4719 20.1565 41.1909 19.7481C42.158 19.1948 41.9885 18.1606 41.9885 18.1606Z" fill="white" stroke="white"/>
</g>
<defs>
<clipPath id="clip0_125_99">
<rect width="42" height="42" fill="white"/>
</clipPath>
</defs>
</svg>
