<svg width="42" height="42" viewBox="0 0 42 42" fill="none" xmlns="http://www.w3.org/2000/svg">
<g clip-path="url(#clip0_118_60)">
<path fill-rule="evenodd" clip-rule="evenodd" d="M33.2603 20.9965C33.2603 24.3872 32.0674 27.2822 29.6782 29.6713C27.2856 32.0639 24.394 33.2602 21.0034 33.2602C17.6265 33.2602 14.7349 32.0673 12.3389 29.6713C9.94629 27.2822 8.74316 24.3872 8.74316 20.9965C8.74316 17.6162 9.94287 14.7348 12.3389 12.3354C14.7417 9.94283 17.6299 8.7397 21.0034 8.7397C24.394 8.7397 27.2856 9.93941 29.6782 12.3354C32.064 14.7348 33.2603 17.6162 33.2603 20.9965ZM5.59522 18.7373C6.67188 18.0024 7.21191 17.0419 7.11963 14.8442V9.19429C7.10938 8.40474 5.67725 8.30904 5.60547 9.19429L5.55078 13.7778C5.54736 14.6357 4.25879 14.663 4.26221 13.7778L4.31689 9.03707C4.29981 8.18941 2.93262 8.10396 2.91553 9.03707C2.91553 10.353 2.86084 12.4619 2.86084 13.7778C2.9292 14.6084 1.73291 14.7177 1.76367 13.7778L1.81836 9.06783C1.7876 8.42867 1.0835 8.19966 0.604981 8.50044C0.0957031 8.82515 0.198242 9.47798 0.177734 10.0283L0 15.4355C0.0273438 17.0078 0.440918 18.2861 1.67139 18.8295C1.85938 18.9116 2.11914 18.9765 2.41992 19.021L1.99609 32.2075C1.97217 32.9902 2.61133 33.6294 3.35986 33.6294H3.53076C4.375 33.6294 5.08936 32.9082 5.06543 32.0297L4.69287 19.0175C5.08594 18.956 5.41065 18.8637 5.59522 18.7373ZM36.4834 31.811L36.4629 19.9677C32.3101 17.5683 33.6328 8.32271 37.7891 8.37398C42.8408 8.43209 43.439 18.7919 39.0947 19.9301L39.416 31.8588C39.4775 34.1147 36.4868 34.3232 36.4834 31.811ZM28.1401 20.9863C28.1401 22.9619 27.4463 24.6469 26.0483 26.0449C24.6538 27.436 22.9688 28.1367 20.9932 28.1367C19.0313 28.1367 17.3462 27.436 15.9517 26.0449C14.5571 24.6469 13.8599 22.9619 13.8599 20.9863C13.8599 19.0244 14.5571 17.3393 15.9517 15.9482C17.3496 14.5571 19.0313 13.8564 20.9932 13.8564C24.9614 13.8598 28.1401 17.0146 28.1401 20.9863ZM29.8115 20.9863C29.8115 18.5595 28.957 16.4848 27.2378 14.7656C25.5186 13.0463 23.437 12.1919 20.9932 12.1919C18.5562 12.1919 16.4814 13.0463 14.7725 14.7656C13.0532 16.4848 12.1885 18.5595 12.1885 20.9863C12.1885 23.4199 13.0532 25.4946 14.7725 27.2207C16.4814 28.9433 18.5562 29.8081 20.9932 29.8081C23.4336 29.8081 25.5151 28.9433 27.2378 27.2207C28.9536 25.4912 29.8115 23.4165 29.8115 20.9863Z" fill="white"/>
</g>
<defs>
<clipPath id="clip0_118_60">
<rect width="42" height="42" fill="white"/>
</clipPath>
</defs>
</svg>
