<svg width="42" height="26" viewBox="0 0 42 26" fill="none" xmlns="http://www.w3.org/2000/svg">
<path fill-rule="evenodd" clip-rule="evenodd" d="M33.2603 12.9965C33.2603 16.3872 32.0674 19.2822 29.6782 21.6713C27.2856 24.0639 24.394 25.2602 21.0034 25.2602C17.6265 25.2602 14.7349 24.0673 12.3389 21.6713C9.94629 19.2822 8.74316 16.3872 8.74316 12.9965C8.74316 9.61617 9.94287 6.73482 12.3389 4.33541C14.7417 1.94283 17.6299 0.739703 21.0034 0.739703C24.394 0.739703 27.2856 1.93941 29.6782 4.33541C32.064 6.73482 33.2603 9.61617 33.2603 12.9965ZM5.59522 10.7373C6.67188 10.0024 7.21191 9.04195 7.11963 6.8442V1.19429C7.10938 0.404742 5.67725 0.309039 5.60547 1.19429L5.55078 5.77779C5.54736 6.6357 4.25879 6.66304 4.26221 5.77779L4.31689 1.03707C4.29981 0.18941 2.93262 0.103961 2.91553 1.03707C2.91553 2.35298 2.86084 4.46187 2.86084 5.77779C2.9292 6.60836 1.73291 6.71773 1.76367 5.77779L1.81836 1.06783C1.7876 0.428668 1.0835 0.199664 0.604981 0.500445C0.0957031 0.825152 0.198242 1.47798 0.177734 2.02828L0 7.4355C0.0273438 9.00777 0.440918 10.2861 1.67139 10.8295C1.85938 10.9116 2.11914 10.9765 2.41992 11.021L1.99609 24.2075C1.97217 24.9902 2.61133 25.6294 3.35986 25.6294H3.53076C4.375 25.6294 5.08936 24.9082 5.06543 24.0297L4.69287 11.0175C5.08594 10.956 5.41065 10.8637 5.59522 10.7373ZM36.4834 23.811L36.4629 11.9677C32.3101 9.56832 33.6328 0.322711 37.7891 0.37398C42.8408 0.432086 43.439 10.7919 39.0947 11.9301L39.416 23.8588C39.4775 26.1147 36.4868 26.3232 36.4834 23.811ZM28.1401 12.9863C28.1401 14.9619 27.4463 16.6469 26.0483 18.0449C24.6538 19.436 22.9688 20.1367 20.9932 20.1367C19.0313 20.1367 17.3462 19.436 15.9517 18.0449C14.5571 16.6469 13.8599 14.9619 13.8599 12.9863C13.8599 11.0244 14.5571 9.33931 15.9517 7.9482C17.3496 6.55709 19.0313 5.8564 20.9932 5.8564C24.9614 5.85982 28.1401 9.0146 28.1401 12.9863ZM29.8115 12.9863C29.8115 10.5595 28.957 8.48482 27.2378 6.76558C25.5186 5.04634 23.437 4.19185 20.9932 4.19185C18.5562 4.19185 16.4814 5.04634 14.7725 6.76558C13.0532 8.48482 12.1885 10.5595 12.1885 12.9863C12.1885 15.4199 13.0532 17.4946 14.7725 19.2207C16.4814 20.9433 18.5562 21.8081 20.9932 21.8081C23.4336 21.8081 25.5151 20.9433 27.2378 19.2207C28.9536 17.4912 29.8115 15.4165 29.8115 12.9863Z" fill="white"/>
</svg>
