<svg width="44" height="44" viewBox="0 0 44 44" fill="none" xmlns="http://www.w3.org/2000/svg">
<path d="M28.6001 19.8V17.6C35.4201 17.6 37.4001 13.31 37.5101 13.2L39.4901 14.08C39.3801 14.3 36.9601 19.8 28.6001 19.8Z" fill="#8D8D8D"/>
<path d="M39.5999 13.2H37.3999V40.7H39.5999V13.2Z" fill="#8D8D8D"/>
<path d="M38.5001 12.1C36.0801 12.1 34.1001 10.12 34.1001 7.69999C34.1001 5.27999 36.0801 3.29999 38.5001 3.29999C40.9201 3.29999 42.9001 5.27999 42.9001 7.69999C42.9001 10.12 40.9201 12.1 38.5001 12.1ZM38.5001 5.49999C37.2901 5.49999 36.3001 6.48999 36.3001 7.69999C36.3001 8.90999 37.2901 9.89999 38.5001 9.89999C39.7101 9.89999 40.7001 8.90999 40.7001 7.69999C40.7001 6.48999 39.7101 5.49999 38.5001 5.49999Z" fill="#8D8D8D"/>
<path d="M35.2 40.92L33 40.59L34.1 33.99C34.1 33.88 34.1 33.77 34.21 33.77L37.51 26.07L39.49 26.95L36.19 34.54L35.2 40.92Z" fill="#8D8D8D"/>
<path d="M28.6002 31.9C26.1802 31.9 24.2002 29.92 24.2002 27.5C24.2002 25.08 26.1802 23.1 28.6002 23.1C31.0202 23.1 33.0002 25.08 33.0002 27.5C33.0002 29.92 31.0202 31.9 28.6002 31.9ZM28.6002 25.3C27.3902 25.3 26.4002 26.29 26.4002 27.5C26.4002 28.71 27.3902 29.7 28.6002 29.7C29.8102 29.7 30.8002 28.71 30.8002 27.5C30.8002 26.29 29.8102 25.3 28.6002 25.3Z" fill="#8D8D8D"/>
<path d="M23.0998 31.9H10.9998C10.5598 31.9 10.1198 31.68 10.0098 31.24L7.69971 25.85L5.38971 31.24C5.27971 31.68 4.83971 31.9 4.39971 31.9H2.19971V29.7H3.62971L6.59971 22.66C6.81971 22.22 7.25971 22 7.69971 22C8.13971 22 8.57971 22.22 8.68971 22.66L11.6598 29.7H23.0998V31.9Z" fill="#8D8D8D"/>
<path d="M23.0999 23.1H20.8999V31.9H23.0999V23.1Z" fill="#8D8D8D"/>
<path d="M21.9998 22C19.2498 22 17.0498 19.8 17.0498 17.05C17.0498 14.3 19.2498 12.1 21.9998 12.1C24.7498 12.1 26.9499 14.3 26.9499 17.05C26.9499 19.8 24.7498 22 21.9998 22ZM21.9998 14.3C20.4598 14.3 19.2498 15.51 19.2498 17.05C19.2498 18.59 20.4598 19.8 21.9998 19.8C23.5398 19.8 24.7498 18.59 24.7498 17.05C24.7498 15.51 23.5398 14.3 21.9998 14.3Z" fill="#8D8D8D"/>
<path d="M22.0029 15.5029L20.4473 17.0585L22.0029 18.6142L23.5585 17.0585L22.0029 15.5029Z" fill="#8D8D8D"/>
<path d="M31.0198 40.7H28.8198V35.2H4.39971V40.7H2.19971V33H31.0198V40.7Z" fill="#8D8D8D"/>
</svg>
