<svg width="44" height="38" viewBox="0 0 44 38" fill="none" xmlns="http://www.w3.org/2000/svg">
<path fill-rule="evenodd" clip-rule="evenodd" d="M36.3891 2.27103L34.5584 0.440308L32.7277 2.27103L34.5584 4.10176L36.3891 2.27103ZM7.75522 5.79783V11.2356H10.3446V2.17263H1.28165V4.76206H5.22276C-2.18191 13.5015 -1.65513 26.4569 6.43461 34.5664L8.27311 32.7279C0.901535 25.3447 0.672961 13.4589 7.75522 5.79783ZM38.7714 33.2458H42.7125V35.8352H33.6495V26.7722H36.2389V32.21C43.3306 24.5525 43.1019 12.6591 35.721 5.27995L37.5518 3.44922C45.6562 11.5481 46.1868 24.5116 38.7714 33.2458ZM9.43317 37.5597L7.60245 35.729L9.43317 33.8983L11.2639 35.729L9.43317 37.5597ZM25.5782 23.9005C25.7918 23.6616 25.9801 23.4013 26.1402 23.1237L26.2644 22.9347L28.2661 24.5686L28.1754 24.7265C27.9392 25.1495 27.6672 25.5515 27.3624 25.928C27.0978 26.2543 26.7831 26.5366 26.4302 26.7644C26.0825 26.984 25.7011 27.145 25.3012 27.2409C24.4374 27.4329 23.5419 27.4329 22.6781 27.2409C22.256 27.1528 21.8184 27.0493 21.4041 26.9483C20.9898 26.8473 20.5755 26.7489 20.1741 26.6608C19.8293 26.5806 19.4768 26.5381 19.1228 26.534C18.8975 26.534 18.6619 26.5443 18.4237 26.565C18.1855 26.586 17.9487 26.6197 17.7142 26.666C17.4882 26.7125 17.2659 26.7748 17.0487 26.8525C16.8554 26.919 16.6696 27.0058 16.4945 27.1114L16.0543 27.3937L16.7121 24.4831L16.8182 24.4417C17.0429 24.3548 17.2741 24.2855 17.5096 24.2346C17.709 24.1854 17.9265 24.1413 18.1518 24.1025C18.3791 23.4826 18.5304 22.8375 18.6023 22.1811C18.6683 21.5554 18.6683 20.9244 18.6023 20.2986H16.3003L16.8648 17.7221H18.188L18.1311 17.4632C18.0844 17.2638 18.0378 17.0489 17.9964 16.8262C17.955 16.6035 17.9161 16.3731 17.8851 16.1348C17.8517 15.9015 17.8344 15.6662 17.8333 15.4305C17.8052 14.1678 18.3601 12.9624 19.3377 12.1626C19.814 11.7767 20.3599 11.4857 20.9458 11.3055C21.5762 11.1098 22.2329 11.012 22.893 11.0155C23.38 11.014 23.8661 11.0556 24.3457 11.1398C24.8027 11.2202 25.248 11.3568 25.6715 11.5464C26.0949 11.7372 26.4925 11.9808 26.8548 12.2714C27.245 12.5865 27.5924 12.9512 27.888 13.3564L28.0045 13.5117L26.0702 15.2829L25.9278 15.0887C25.7362 14.8186 25.5128 14.5726 25.2623 14.3559C25.0479 14.1733 24.8102 14.0201 24.5554 13.9002C24.3179 13.7902 24.0673 13.711 23.8097 13.6645C23.5534 13.6172 23.2934 13.5929 23.0328 13.592C22.6661 13.5828 22.3007 13.638 21.9531 13.7551C21.6817 13.8463 21.4322 13.9926 21.2202 14.185C21.028 14.3644 20.88 14.586 20.7878 14.8323C20.6878 15.0889 20.6377 15.3623 20.6402 15.6377C20.6403 16.0104 20.6811 16.382 20.7619 16.7459C20.8318 17.0774 20.9121 17.4088 21.0001 17.7325H26.1583L25.5886 20.3038H21.329C21.3575 20.6145 21.3575 20.9201 21.3575 21.2127C21.3578 21.5759 21.3397 21.9389 21.3031 22.3003C21.2676 22.6574 21.2097 23.012 21.1296 23.3619C21.0675 23.6374 20.9888 23.909 20.894 24.175C21.0778 24.2138 21.2565 24.2579 21.4274 24.3122L22.1291 24.522C22.3596 24.5867 22.5901 24.6437 22.8153 24.6903C23.3126 24.7895 23.8251 24.7834 24.3198 24.6722C24.5555 24.6151 24.7809 24.5217 24.9879 24.3951C25.2076 24.2597 25.4064 24.0931 25.5782 23.9005Z" fill="#8D8D8D"/>
</svg>
