<svg width="44" height="44" viewBox="0 0 44 44" fill="none" xmlns="http://www.w3.org/2000/svg">
<path fill-rule="evenodd" clip-rule="evenodd" d="M30.6848 31.1737H43.0327L35.0148 23.1952L33.167 25.0535L36.6845 28.5527H28.0638V37.1838L21.5111 30.6311L14.9584 37.1838V28.5527H6.32726L12.88 22L6.32726 15.4473H14.9584V6.81615L21.5111 13.3689L28.0638 6.81615V15.4473H36.6949L33.1644 18.9752L35.0201 20.831L43.0222 12.8263H30.6848V0.488892L21.5111 9.66263L12.3374 0.488892V12.8263H0L9.17374 22L0 31.1737H12.3374V43.5111L21.5111 34.3374L30.6848 43.5111V31.1737ZM31.9797 23.8662L30.1266 22.0131L31.9797 20.1653L33.8328 22.0131L31.9797 23.8662Z" fill="#8D8D8D"/>
</svg>
