<svg width="44" height="40" viewBox="0 0 44 40" fill="none" xmlns="http://www.w3.org/2000/svg">
<path fill-rule="evenodd" clip-rule="evenodd" d="M12.2736 17.1109C13.9734 17.1104 15.6204 16.5194 16.9327 15.4389C19.9484 17.6686 24.0663 17.6686 27.082 15.4389C29.8871 17.7488 33.9608 17.656 36.6579 15.2209C39.355 12.7858 39.8621 8.74277 37.8499 5.717C35.8377 2.69124 31.9131 1.59535 28.6244 3.14091C27.0019 1.15321 24.5719 0 22.0061 0C19.4403 0 17.0103 1.15321 15.3878 3.14091C12.6652 1.86113 9.43722 2.37393 7.24531 4.43441C5.05339 6.4949 4.34223 9.68508 5.45144 12.4815C6.56065 15.2778 9.26522 17.1131 12.2736 17.1109ZM29.898 5.24802C32.0808 4.35646 34.589 5.14991 35.8619 7.13467C37.1348 9.11943 36.8097 11.7299 35.0889 13.3419C33.3681 14.9539 30.7419 15.1079 28.8444 13.7082C29.7006 12.5825 30.2597 11.2593 30.47 9.86068V9.84602L30.4753 9.80774C30.4906 9.69667 30.5055 9.58851 30.5164 9.47446V9.38157C30.5164 9.31471 30.5234 9.24784 30.5303 9.18097C30.5343 9.14274 30.5382 9.10447 30.5409 9.06624V8.96113C30.5409 8.89426 30.5439 8.82738 30.547 8.76021C30.55 8.69238 30.5531 8.6241 30.5531 8.55535C30.5531 8.41846 30.5531 8.26691 30.5409 8.12268C30.5409 8.04202 30.5409 7.96135 30.5238 7.87824C30.5149 7.835 30.5152 7.80434 30.5156 7.77626C30.5159 7.75036 30.5161 7.72667 30.5091 7.69735C30.4993 7.65661 30.4917 7.58328 30.4841 7.50994C30.4803 7.47328 30.4765 7.43661 30.4724 7.40402C30.4724 7.36246 30.4724 7.31846 30.4553 7.27446C30.4407 7.17668 30.4236 7.07891 30.404 6.98113L30.382 6.85646C30.3696 6.7929 30.3547 6.72934 30.34 6.6667L30.3233 6.59491L30.2867 6.43846C30.2696 6.37246 30.25 6.30646 30.2304 6.24046C30.2213 6.20953 30.2121 6.17592 30.2027 6.14138C30.192 6.10222 30.181 6.06187 30.1693 6.02291C30.1693 6.00127 30.1596 5.97866 30.1499 5.95631C30.1443 5.94331 30.1387 5.93039 30.1351 5.9178C30.0667 5.69046 29.9909 5.46802 29.898 5.24802ZM27.3264 5.5658C26.2457 3.639 24.2092 2.4455 22 2.44424C19.7707 2.42505 17.7079 3.62136 16.6173 5.5658L16.5636 5.66602C16.5412 5.70588 16.5168 5.75407 16.4958 5.79565C16.4846 5.81776 16.4743 5.83813 16.4658 5.85424C16.4505 5.88322 16.4381 5.91029 16.4244 5.94021C16.4161 5.95822 16.4074 5.97736 16.3973 5.99846C16.3704 6.05469 16.3436 6.11091 16.3191 6.16957C16.2776 6.2698 16.2384 6.37002 16.1993 6.47268L16.1881 6.50478C16.1818 6.52348 16.1758 6.54233 16.1579 6.5993C16.131 6.68485 16.1064 6.76357 16.082 6.84424C16.0785 6.85546 16.0742 6.86689 16.0698 6.87846C16.059 6.9072 16.0478 6.93683 16.0478 6.96646C16.0184 7.07157 15.9916 7.17668 15.9696 7.28424C15.9704 7.29726 15.9704 7.31033 15.9696 7.32335C15.9451 7.44802 15.9256 7.5678 15.906 7.69246V7.79024C15.9033 7.8111 15.9004 7.83196 15.8975 7.85285C15.8871 7.92741 15.8767 8.0023 15.8767 8.07868V8.1838V8.56269V8.87557C16.0486 12.1205 18.7298 14.6634 21.9792 14.6634C25.2287 14.6634 27.9099 12.1205 28.0818 8.87557V8.56269C28.0818 8.49426 28.078 8.42964 28.0742 8.36624C28.0706 8.30512 28.0671 8.24495 28.0671 8.1838V8.07868C28.0598 7.98091 28.05 7.88557 28.0378 7.79024V7.69246C28.0207 7.5678 27.9987 7.44557 27.9742 7.32335V7.28424C27.9522 7.17668 27.9253 7.07157 27.8984 6.96646L27.8618 6.84424C27.8449 6.7768 27.8252 6.7151 27.8059 6.65474L27.7884 6.5998L27.7444 6.47268C27.7078 6.37002 27.6662 6.2698 27.6247 6.16957C27.6091 6.13219 27.5905 6.09283 27.5734 6.05654C27.5637 6.03587 27.5544 6.0162 27.5464 5.99846C27.5244 5.94957 27.5024 5.90068 27.478 5.85424L27.3827 5.66602L27.3264 5.5658ZM12.2736 4.88868C12.9046 4.88762 13.5299 5.00968 14.1142 5.24802C14.0238 5.46802 13.9431 5.69046 13.8698 5.9178L13.8331 6.02291C13.8111 6.09624 13.7916 6.16713 13.772 6.24046C13.7625 6.27598 13.7531 6.30806 13.7439 6.3392C13.7341 6.37234 13.7246 6.40444 13.7158 6.43846L13.6889 6.5998L13.6302 6.86135L13.6082 6.98602C13.6025 7.01861 13.5965 7.0512 13.5906 7.0838C13.5786 7.14898 13.5667 7.21417 13.5569 7.27935C13.5569 7.32335 13.5569 7.36735 13.5398 7.40891C13.5398 7.46866 13.5297 7.52841 13.5197 7.58817C13.5133 7.62619 13.5069 7.66422 13.5031 7.70224C13.4966 7.76771 13.4988 7.80031 13.501 7.83231C13.502 7.8481 13.5031 7.86375 13.5031 7.88313C13.5031 7.91702 13.4982 7.96641 13.4931 8.01763C13.4894 8.05507 13.4856 8.09352 13.4836 8.12757V8.56024V8.96602V9.07357C13.4836 9.15023 13.4917 9.22826 13.4999 9.30663C13.5027 9.33321 13.5055 9.35984 13.508 9.38646V9.47935C13.508 9.56556 13.522 9.64944 13.5363 9.73502C13.5426 9.77314 13.5492 9.81175 13.5544 9.85091V9.86557C13.767 11.2636 14.3258 12.5862 15.18 13.7131C13.4723 14.9717 11.1479 14.9853 9.42552 13.7469C7.70317 12.5085 6.976 10.3007 7.6253 8.28117C8.27461 6.26164 10.1522 4.89129 12.2736 4.88868ZM30.5556 19.5554C37.9774 19.5634 43.9919 25.578 44 32.9998V34.222H37.4562C37.7422 35.4233 37.8874 36.6538 37.8889 37.8887V39.1109H6.11111V37.8887C6.11175 36.6541 6.2553 35.4236 6.53889 34.222H0V32.9998C0.0080833 25.578 6.02263 19.5634 13.4444 19.5554C16.2235 19.5458 18.9354 20.4085 21.1982 22.0218C21.4647 21.9998 21.7311 21.9998 22 21.9998C22.1347 21.9998 22.2694 22.0047 22.4039 22.0096C22.5377 22.0145 22.6713 22.0194 22.8042 22.0194C25.0671 20.4083 27.7778 19.5466 30.5556 19.5554ZM13.4444 21.9998C14.7677 21.9975 16.0804 22.2352 17.3189 22.7014C12.8039 24.0871 9.14258 27.415 7.33333 31.7776H2.51289C3.14168 26.2135 7.84495 22.0066 13.4444 21.9998ZM9.32067 33.408C8.94722 34.4599 8.70822 35.5547 8.60933 36.6665H35.3882C34.9701 32.1403 32.2957 28.1309 28.2773 26.0062L24.8209 29.4651L23.0902 27.7345L25.8256 24.9991C23.9144 24.4334 21.9017 24.2982 19.932 24.6031C19.3362 24.694 18.7474 24.8255 18.1696 24.9967L20.9098 27.7345L19.1791 29.4651L15.7129 25.9965C12.7266 27.5761 10.4445 30.2221 9.32067 33.408ZM36.6667 31.7776C34.8426 27.425 31.1858 24.1029 26.6787 22.7038C29.8558 21.5074 33.4074 21.8451 36.3021 23.6189C39.1969 25.3926 41.1104 28.4036 41.4871 31.7776H36.6667ZM23.7282 30.5554L22 28.8271L20.2718 30.5554L22 32.2836L23.7282 30.5554Z" fill="#8D8D8D"/>
</svg>
