<svg width="42" height="42" viewBox="0 0 42 42" fill="none" xmlns="http://www.w3.org/2000/svg">
<path d="M15.9091 34.3636C16.9634 34.3636 17.8182 33.5089 17.8182 32.4545V23.4818H21.9227C26.2914 23.4818 29.8455 19.9277 29.8455 15.5591C29.8455 11.1904 26.2914 7.63635 21.9227 7.63635C21.9039 7.63635 21.8853 7.63661 21.8667 7.63712H15.9116C15.9107 7.63712 15.91 7.63699 15.9091 7.63699C14.8548 7.63699 14 8.49175 14 9.54608V21.5727V32.4545C14 33.5089 14.8548 34.3636 15.9091 34.3636ZM21.9227 11.4553C21.9383 11.4553 21.9535 11.4552 21.9691 11.4548C24.211 11.4797 26.0273 13.3113 26.0273 15.5591C26.0273 17.8224 24.1859 19.6636 21.9227 19.6636H17.8182V11.4553H21.9227Z" fill="#8D8D8D"/>
<path d="M41.4408 0.559109C41.0827 0.201091 40.5972 0 40.0908 0L1.90896 0.00203636C0.854636 0.00216364 0 0.8568 0 1.91113V40.0909C0 41.1452 0.854763 42 1.90909 42H40.0909C41.1452 42 42 41.1452 42 40.0909V1.90909C42 1.40267 41.7989 0.917127 41.4408 0.559109ZM38.1818 38.1818H3.81818V3.82009L38.1818 3.81831V38.1818Z" fill="#8D8D8D"/>
</svg>
