<svg width="43" height="43" viewBox="0 0 43 43" fill="none" xmlns="http://www.w3.org/2000/svg">
<path d="M16.5946 2.62894C20.2529 10.5621 24.4266 16.153 28.9078 18.7441L16.5946 2.62894ZM16.5946 2.62894C25.1718 1.85004 32.2191 2.65169 36.696 5.24033L36.6964 5.24056C40.4684 7.4193 41.7696 12.2084 39.6206 15.9323L39.6203 15.9327C37.4763 19.6523 32.6801 20.922 28.9083 18.7444L16.5946 2.62894Z" stroke="#8D8D8D" stroke-width="2"/>
<path d="M8.18351 9.07994C4.38906 14.5184 2.34387 19.3706 2.34375 23.2742L8.18351 9.07994ZM8.18351 9.07994C11.9236 14.4509 14.0265 19.3758 14.0272 23.2745L8.18351 9.07994ZM8.18612 29.1888C4.97207 29.1888 2.34509 26.5488 2.34375 23.2745L14.0272 23.2747C14.0271 26.5491 11.404 29.1888 8.18612 29.1888Z" stroke="#8D8D8D" stroke-width="2"/>
<path d="M30.3609 39.88L30.3608 39.8801C27.5772 41.4892 23.9849 40.5173 22.3479 37.682C20.3985 34.3037 19.7442 29.077 20.3136 22.4673C26.2365 25.246 30.5187 28.4591 32.4655 31.8345L32.4656 31.8347C34.1013 34.6694 33.1478 38.2698 30.3609 39.88Z" stroke="#8D8D8D" stroke-width="2"/>
</svg>
