<svg width="34" height="40" viewBox="0 0 34 40" fill="none" xmlns="http://www.w3.org/2000/svg">
<path d="M17.8571 0.033349C19.9931 1.26719e-07 22.1133 0.0173414 24.2323 0C24.3028 2.70926 25.3779 5.14774 27.0885 6.95391L27.0859 6.95124C28.927 8.6467 31.3226 9.74588 33.9635 9.93264L34 9.9353V16.6531C31.5052 16.5891 29.1592 16.0008 27.0442 14.9897L27.1511 15.035C26.1282 14.5321 25.2631 14.0159 24.4411 13.4396L24.5089 13.485C24.4933 18.3526 24.5246 23.2202 24.4763 28.0704C24.3419 30.5423 23.5382 32.7966 22.249 34.6789L22.2751 34.6375C20.1196 37.7936 16.628 39.8653 12.6575 39.988H12.6392C12.4788 39.996 12.2896 40 12.0991 40C9.84178 40 7.73193 39.357 5.93392 38.2405L5.98611 38.2712C2.7137 36.2583 0.456406 32.814 0.038872 28.8081L0.0336529 28.7534C0.00103314 27.9197 -0.0146245 27.086 0.0179953 26.2696C0.657344 19.8946 5.88173 14.963 12.2322 14.963C12.9459 14.963 13.6452 15.0257 14.325 15.1444L14.252 15.1337C14.2846 17.6002 14.1867 20.068 14.1867 22.5345C13.6348 22.3304 12.9981 22.2117 12.3339 22.2117C9.89658 22.2117 7.82326 23.8044 7.05604 26.0281L7.0443 26.0682C6.87076 26.6378 6.7703 27.2927 6.7703 27.9704C6.7703 28.2452 6.78726 28.5173 6.81857 28.7841L6.81596 28.7521C7.24915 31.4814 9.53776 33.541 12.2974 33.541C12.377 33.541 12.4553 33.5397 12.5336 33.5357H12.5218C14.4307 33.477 16.0878 32.4271 17.0247 30.8757L17.0377 30.8517C17.3861 30.3555 17.6249 29.7552 17.7045 29.1029L17.7058 29.0842C17.8689 26.1002 17.8036 23.1335 17.8193 20.1494C17.8349 13.4316 17.8036 6.72981 17.8519 0.0293471L17.8571 0.033349Z" fill="white"/>
</svg>
