<svg width="42" height="42" viewBox="0 0 42 42" fill="none" xmlns="http://www.w3.org/2000/svg">
<path d="M2.8335 39.5C1.33984 28.4352 3.66406 22.8223 5.69434 17.9111C6.41895 16.1588 7.70068 12.9074 8.15186 9.59104C8.52783 6.82911 8.25098 4.02268 8.09375 2H9.15332C9.31738 4.17669 9.57031 7.13028 9.16699 10.0052C8.69873 13.325 7.40674 16.5352 6.67188 18.3183C6.59326 18.5066 6.51465 18.6948 6.43604 18.8865C16.9531 22.1241 26.749 21.9393 35.9399 18.8659L35.7451 18.3868C35.0342 16.655 33.1714 13.5714 32.7031 10.344C32.2725 7.36643 32.9697 4.26567 33.2329 2H34.2959C34.0395 4.15958 33.3252 7.18504 33.7422 10.1078C34.1934 13.2702 36.0356 16.3093 36.7227 17.9864C38.7495 22.9216 41.0635 28.5481 39.5869 39.5H38.5171C39.7065 30.7898 38.4556 25.5192 36.8867 21.2719C31.4932 23.5308 27.2104 26.9669 23.3174 31.3032C23.3345 31.3751 23.3345 31.4504 23.3174 31.5256C22.9824 33.1137 22.7432 35.0919 22.6099 37.2754C22.5654 37.9975 22.5347 38.7402 22.5142 39.4966H21.4546C21.4751 38.7163 21.5059 37.953 21.5537 37.2104C21.6563 35.5231 21.8203 33.9488 22.0459 32.5763H20.1216C20.3745 33.9488 20.5591 35.506 20.6719 37.1727C20.7231 37.9257 20.7607 38.7026 20.7847 39.4966H19.7251C19.7012 38.7299 19.667 37.9736 19.6157 37.2412C19.4687 35.0953 19.2021 33.1376 18.8193 31.5359C18.8159 31.5222 18.8125 31.5051 18.8125 31.4914C14.9263 26.9327 10.6333 23.6061 5.43457 21.4328C3.8999 25.6287 2.71729 30.8685 3.8999 39.5H2.8335ZM5.33203 9.56366L3.33936 11.5008C3.17188 11.6651 2.90527 11.6616 2.74121 11.4939C2.57715 11.3262 2.58057 11.0593 2.74805 10.895L4.01611 9.66291H0.423828C0.191406 9.66291 0 9.47125 0 9.23852C0 9.0058 0.191406 8.81414 0.423828 8.81414H4.01611L2.74805 7.58205C2.58057 7.41777 2.57715 7.15082 2.74121 6.98312C2.90527 6.81542 3.17188 6.81199 3.33936 6.97627L5.33203 8.91681C5.42432 8.99553 5.48584 9.11189 5.48584 9.24195C5.48584 9.36858 5.42773 9.48494 5.33203 9.56366ZM37.9839 9.66291L39.252 10.895C39.4194 11.0593 39.4229 11.3262 39.2588 11.4939C39.0947 11.6616 38.8281 11.6651 38.6606 11.5008L36.668 9.56366C36.5757 9.48494 36.5142 9.36858 36.5142 9.23852C36.5142 9.10847 36.5723 8.99211 36.668 8.91339L38.6606 6.97285C38.8281 6.80857 39.0947 6.81199 39.2588 6.97969C39.4229 7.14739 39.4194 7.41435 39.252 7.57863L37.9839 8.81071H41.5762C41.812 8.81071 42 9.00237 42 9.2351C42 9.46783 41.8086 9.65949 41.5762 9.65949H37.9839V9.66291ZM21.2051 16.9596C21.5776 16.9596 21.8818 17.1855 21.8818 17.4627C21.8818 17.7399 21.5811 17.9658 21.2051 17.9658C20.8291 17.9658 20.5283 17.7399 20.5283 17.4627C20.5317 17.1855 20.8325 16.9596 21.2051 16.9596Z" fill="#8D8D8D"/>
</svg>
