<svg width="42" height="38" viewBox="0 0 42 38" fill="none" xmlns="http://www.w3.org/2000/svg">
<path d="M2.8335 37.5C1.33984 26.4352 3.66406 20.8223 5.69434 15.9111C6.41895 14.1588 7.70068 10.9074 8.15186 7.59104C8.52783 4.82911 8.25098 2.02268 8.09375 0H9.15332C9.31738 2.17669 9.57031 5.13028 9.16699 8.00516C8.69873 11.325 7.40674 14.5352 6.67188 16.3183C6.59326 16.5066 6.51465 16.6948 6.43604 16.8865C16.9531 20.1241 26.749 19.9393 35.9399 16.8659L35.7451 16.3868C35.0342 14.655 33.1714 11.5714 32.7031 8.34398C32.2725 5.36643 32.9697 2.26567 33.2329 0H34.2959C34.0395 2.15958 33.3252 5.18504 33.7422 8.10783C34.1934 11.2702 36.0356 14.3093 36.7227 15.9864C38.7495 20.9216 41.0635 26.5481 39.5869 37.5H38.5171C39.7065 28.7898 38.4556 23.5192 36.8867 19.2719C31.4932 21.5308 27.2104 24.9669 23.3174 29.3032C23.3345 29.3751 23.3345 29.4504 23.3174 29.5256C22.9824 31.1137 22.7432 33.0919 22.6099 35.2754C22.5654 35.9975 22.5347 36.7402 22.5142 37.4966H21.4546C21.4751 36.7163 21.5059 35.953 21.5537 35.2104C21.6563 33.5231 21.8203 31.9488 22.0459 30.5763H20.1216C20.3745 31.9488 20.5591 33.506 20.6719 35.1727C20.7231 35.9257 20.7607 36.7026 20.7847 37.4966H19.7251C19.7012 36.7299 19.667 35.9736 19.6157 35.2412C19.4687 33.0953 19.2021 31.1376 18.8193 29.5359C18.8159 29.5222 18.8125 29.5051 18.8125 29.4914C14.9263 24.9327 10.6333 21.6061 5.43457 19.4328C3.8999 23.6287 2.71729 28.8685 3.8999 37.5H2.8335ZM5.33203 7.56366L3.33936 9.50078C3.17188 9.66505 2.90527 9.66163 2.74121 9.49393C2.57715 9.32623 2.58057 9.05928 2.74805 8.895L4.01611 7.66291H0.423828C0.191406 7.66291 0 7.47125 0 7.23852C0 7.0058 0.191406 6.81414 0.423828 6.81414H4.01611L2.74805 5.58205C2.58057 5.41777 2.57715 5.15082 2.74121 4.98312C2.90527 4.81542 3.17188 4.81199 3.33936 4.97627L5.33203 6.91681C5.42432 6.99553 5.48584 7.11189 5.48584 7.24195C5.48584 7.36858 5.42773 7.48494 5.33203 7.56366ZM37.9839 7.66291L39.252 8.895C39.4194 9.05928 39.4229 9.32623 39.2588 9.49393C39.0947 9.66163 38.8281 9.66505 38.6606 9.50078L36.668 7.56366C36.5757 7.48494 36.5142 7.36858 36.5142 7.23852C36.5142 7.10847 36.5723 6.99211 36.668 6.91339L38.6606 4.97285C38.8281 4.80857 39.0947 4.81199 39.2588 4.97969C39.4229 5.14739 39.4194 5.41435 39.252 5.57863L37.9839 6.81071H41.5762C41.812 6.81071 42 7.00237 42 7.2351C42 7.46783 41.8086 7.65949 41.5762 7.65949H37.9839V7.66291ZM21.2051 14.9596C21.5776 14.9596 21.8818 15.1855 21.8818 15.4627C21.8818 15.7399 21.5811 15.9658 21.2051 15.9658C20.8291 15.9658 20.5283 15.7399 20.5283 15.4627C20.5317 15.1855 20.8325 14.9596 21.2051 14.9596Z" fill="white"/>
</svg>
